<?xml version="1.0" encoding="utf-8"?>
<!-- Generator: Adobe Illustrator 27.3.1, SVG Export Plug-In . SVG Version: 6.00 Build 0)  -->
<svg version="1.1" id="graph-tern_x5F_teaser" xmlns="http://www.w3.org/2000/svg" xmlns:xlink="http://www.w3.org/1999/xlink"
	 x="0px" y="0px" viewBox="0 0 2648 1034.6" style="enable-background:new 0 0 2648 1034.6;" xml:space="preserve">
<style type="text/css">
	
		.st0{fill-rule:evenodd;clip-rule:evenodd;fill:#E0E0E0;stroke:#000000;stroke-width:6.875;stroke-linecap:round;stroke-linejoin:bevel;stroke-miterlimit:10;}
	.st1{fill:#FFFFFF;}
	.st2{fill-rule:evenodd;clip-rule:evenodd;fill:#FAFAFA;stroke:#BDBDBD;stroke-width:4.5833;stroke-miterlimit:8;}
	.st3{fill-rule:evenodd;clip-rule:evenodd;fill:#FFFFFF;}
	.st4{fill-rule:evenodd;clip-rule:evenodd;fill:#CFD8DC;}
	.st5{fill:#CFD8DC;}
	.st6{fill:none;stroke:#000000;stroke-width:6.875;stroke-miterlimit:8;}
	.st7{fill:none;stroke:#000000;stroke-width:9.1667;stroke-miterlimit:8;}
	.st8{fill:#FFFFFF;stroke:#000000;stroke-width:4.5833;stroke-miterlimit:8;}
	.st9{fill:none;stroke:#000000;stroke-width:4.5833;stroke-miterlimit:8;}
	.st10{fill:#E0E0E0;}
	
		.st11{fill-rule:evenodd;clip-rule:evenodd;fill:#FFFFFF;stroke:#000000;stroke-width:4.5833;stroke-linejoin:bevel;stroke-miterlimit:10;}
	.st12{fill-rule:evenodd;clip-rule:evenodd;fill:#BDBDBD;}
	.st13{fill-rule:evenodd;clip-rule:evenodd;}
	.st14{fill-rule:evenodd;clip-rule:evenodd;fill:#798E60;}
	.st15{fill-rule:evenodd;clip-rule:evenodd;fill:#ACB69F;}
	.st16{fill-rule:evenodd;clip-rule:evenodd;fill:#587F28;}
	.st17{fill-rule:evenodd;clip-rule:evenodd;fill:#4C6E22;}
	.st18{fill-rule:evenodd;clip-rule:evenodd;fill:#669330;}
	.st19{fill-rule:evenodd;clip-rule:evenodd;fill:#5A812A;}
	.st20{fill-rule:evenodd;clip-rule:evenodd;fill:#466521;}
	.st21{fill-rule:evenodd;clip-rule:evenodd;fill:#005499;}
	.st22{fill-rule:evenodd;clip-rule:evenodd;fill:#004883;}
	.st23{fill-rule:evenodd;clip-rule:evenodd;fill:#0062B1;}
	.st24{fill-rule:evenodd;clip-rule:evenodd;fill:#00569B;}
	.st25{fill-rule:evenodd;clip-rule:evenodd;fill:#014277;}
	.st26{fill:none;stroke:#B71C1C;stroke-width:11.4583;stroke-miterlimit:8;}
	.st27{fill-rule:evenodd;clip-rule:evenodd;fill:#E0E0E0;}
	.st28{enable-background:new    ;}
	.st29{fill:#B71C1C;}
	.st30{fill-rule:evenodd;clip-rule:evenodd;fill:#B19BBE;}
	.st31{fill-rule:evenodd;clip-rule:evenodd;fill:#82579C;}
	.st32{fill:#FFF301;}
	.st33{fill:none;stroke:#B71C1C;stroke-width:13.75;stroke-miterlimit:8;}
	.st34{fill-rule:evenodd;clip-rule:evenodd;fill:#FFFFFF;stroke:#B71C1C;stroke-width:13.75;stroke-miterlimit:8;}
	.st35{fill:none;stroke:#FF9800;stroke-width:27.5;stroke-miterlimit:8;}
	.st36{fill-rule:evenodd;clip-rule:evenodd;fill:#62188D;}
	.st37{fill-rule:evenodd;clip-rule:evenodd;fill:#54147A;}
	.st38{fill-rule:evenodd;clip-rule:evenodd;fill:#701CA3;}
	.st39{fill-rule:evenodd;clip-rule:evenodd;fill:#64188F;}
	.st40{fill-rule:evenodd;clip-rule:evenodd;fill:#C49A97;}
	.st41{fill-rule:evenodd;clip-rule:evenodd;fill:#A8554F;}
	.st42{fill-rule:evenodd;clip-rule:evenodd;fill:#9F1408;}
	.st43{fill-rule:evenodd;clip-rule:evenodd;fill:#891006;}
	.st44{fill-rule:evenodd;clip-rule:evenodd;fill:#B9160A;}
	.st45{fill-rule:evenodd;clip-rule:evenodd;fill:#A31408;}
	.st46{fill-rule:evenodd;clip-rule:evenodd;fill:#E0E0E0;stroke:#B71C1C;stroke-width:13.75;stroke-miterlimit:8;}
	.st47{fill:none;stroke:#B71C1C;stroke-width:13.75;stroke-miterlimit:8;stroke-dasharray:13.75,13.75;}
	.st48{fill-rule:evenodd;clip-rule:evenodd;fill:#B71C1C;}
	.st49{fill-rule:evenodd;clip-rule:evenodd;fill:#E0E0E0;stroke:#B71C1C;stroke-width:10.6943;stroke-miterlimit:8;}
	.st50{fill-rule:evenodd;clip-rule:evenodd;fill:#FFFFFF;stroke:#FFFFFF;stroke-width:18;stroke-miterlimit:8;}
	.st51{fill:none;stroke:#FF9800;stroke-width:22.9167;stroke-miterlimit:8;}
	.st52{fill-rule:evenodd;clip-rule:evenodd;fill:#8C1108;}
</style>
<path class="st0" d="M3.5,1031l422.7-623h1795.6l422.7,623H3.5z"/>
<rect x="1652" y="273.5" class="st1" width="608" height="190"/>
<path class="st2" d="M2140.5,315.7c0-7.6,6.1-13.7,13.6-13.7h105.3c0,20.4,0.2,66.4,0,82h-105.3c-7.5,0-13.6-6.1-13.6-13.7V315.7z"
	/>
<rect x="387" y="273.5" class="st1" width="977" height="190"/>
<path class="st3" d="M1653,272.6c-0.2,64-0.4,128-0.5,191.9l-110.4-10.8c-0.2-65.7,1-167.5,0.8-233.2l0,0l28.8,7.6l43,19.8
	L1653,272.6z"/>
<path class="st3" d="M1364,272.7c0.2,63.6,0.4,127.2,0.6,190.9l110.4-9.5c0.2-65.8-0.2-167.7,0-233.5l0,0l-29,7.6l-43.3,19.8
	L1364,272.7z"/>
<path class="st4" d="M1365.3,409.5l109.7-11c0,18.5,0,37.8,0,56.3l-110,9.7L1365.3,409.5z"/>
<rect x="387" y="408.5" class="st5" width="978" height="55"/>
<path class="st4" d="M1651.7,409.5l-109.7-11c0,18.5,0,37.8,0,56.3l110,9.7L1651.7,409.5z"/>
<rect x="1652" y="408.5" class="st5" width="609" height="55"/>
<path class="st6" d="M409,191c-10.1,0-19.1,32.8-22.3,81.4"/>
<path class="st6" d="M2238,191c10.1,0,19.1,32.8,22.3,81.4"/>
<path class="st6" d="M409.5,191h1063.6"/>
<path class="st6" d="M1540.5,191h697.6"/>
<path class="st6" d="M1536.5,228v178.7"/>
<path class="st7" d="M1538.5,434l3.3,21.9"/>
<rect x="387.5" y="273" class="st6" width="977" height="192"/>
<rect x="1653.5" y="273" class="st6" width="606" height="192"/>
<path class="st6" d="M1363.7,273.9c24.2-23.1,63-41.7,110.5-53"/>
<path class="st6" d="M1654.3,273.9c-24.2-23.1-63-41.7-110.5-53"/>
<path class="st6" d="M1364.5,464.7l112.7-10.6"/>
<path class="st3" d="M1474,406.5l64.5,0.6l2.5,10c-0.2,5.2-0.4,10.3-0.6,15.5h-65.6C1475,424.1,1475.2,415.7,1474,406.5z"/>
<path class="st6" d="M1474.5,419h65.9"/>
<path class="st6" d="M1474.5,433h69.1"/>
<path class="st7" d="M1538.5,407l1.8,11.9"/>
<path class="st7" d="M1540.5,433.8V419"/>
<path class="st6" d="M1474.5,220v235.5"/>
<path class="st6" d="M1543.5,219v237.1"/>
<path class="st6" d="M1472.5,407h65.9"/>
<path class="st6" d="M1652.2,464.7l-112.7-10.6"/>
<path class="st6" d="M1471.5,191c1.3,0.2,2.6,13.1,3.6,36"/>
<path class="st6" d="M1536.1,227.3c2-45.4,5.3-48.6,7.6-7.3"/>
<rect x="565.5" y="294" class="st8" width="140" height="165"/>
<rect x="672.5" y="302" class="st9" width="33" height="157"/>
<rect x="638.5" y="302" class="st9" width="33" height="157"/>
<path class="st2" d="M679.5,321.5c0-5.2,4.2-9.5,9.5-9.5l0,0c5.2,0,9.5,4.2,9.5,9.5v67c0,5.2-4.2,9.5-9.5,9.5l0,0
	c-5.2,0-9.5-4.2-9.5-9.5V321.5z"/>
<path class="st2" d="M645.5,321.5c0-5.2,4.2-9.5,9.5-9.5l0,0c5.2,0,9.5,4.2,9.5,9.5v67c0,5.2-4.2,9.5-9.5,9.5l0,0
	c-5.2,0-9.5-4.2-9.5-9.5V321.5z"/>
<rect x="600.5" y="302" class="st9" width="33" height="157"/>
<rect x="565.5" y="302" class="st9" width="34" height="157"/>
<path class="st2" d="M607.5,321.5c0-5.2,4.2-9.5,9.5-9.5l0,0c5.2,0,9.5,4.2,9.5,9.5v67c0,5.2-4.2,9.5-9.5,9.5l0,0
	c-5.2,0-9.5-4.2-9.5-9.5V321.5z"/>
<path class="st2" d="M572.5,322c0-5.5,4.5-10,10-10l0,0c5.5,0,10,4.5,10,10v66c0,5.5-4.5,10-10,10l0,0c-5.5,0-10-4.5-10-10V322z"/>
<path class="st2" d="M1550.5,306.8c0-7.6,6.2-13.8,13.8-13.8l67.5,8.2c7.6,0,13.8,7.8,13.8,15.4v52.8c0,7.6-6.7,14.6-14.3,14.6
	c-23-2.5-44.2-5.5-66.9-8.5c-7.6-0.8-13.8-6.2-13.8-13.8v-54.9H1550.5z"/>
<path class="st2" d="M1467.5,306.8c0-7.6-6.2-13.8-13.8-13.8l-67.5,8.2c-7.6,0-13.8,7.8-13.8,15.4v52.8c0,7.6,6.7,14.6,14.3,14.6
	c23-2.5,44.2-5.5,67-8.5c7.6-0.8,13.8-6.2,13.8-13.8V306.8z"/>
<path class="st2" d="M1044.5,315.7c0-7.6,6.1-13.7,13.7-13.7h106.7c7.5,0,13.7,6.1,13.7,13.7v54.7c0,7.6-6.1,13.7-13.7,13.7h-106.7
	c-7.6,0-13.7-6.1-13.7-13.7V315.7z"/>
<path class="st2" d="M890.5,315.7c0-7.6,6.1-13.7,13.7-13.7h106.7c7.6,0,13.7,6.1,13.7,13.7v54.7c0,7.6-6.1,13.7-13.7,13.7H904.2
	c-7.6,0-13.7-6.1-13.7-13.7V315.7z"/>
<path class="st2" d="M736.5,315.7c0-7.6,6.1-13.7,13.7-13.7h106.7c7.6,0,13.7,6.1,13.7,13.7v54.7c0,7.6-6.1,13.7-13.7,13.7H750.2
	c-7.6,0-13.7-6.1-13.7-13.7V315.7z"/>
<path class="st2" d="M1986.5,315.7c0-7.6,6.1-13.7,13.7-13.7h105.7c7.5,0,13.7,6.1,13.7,13.7v54.7c0,7.6-6.1,13.7-13.7,13.7h-105.7
	c-7.5,0-13.7-6.1-13.7-13.7V315.7z"/>
<path class="st2" d="M1831.5,315.7c0-7.6,6.1-13.7,13.7-13.7h105.7c7.5,0,13.7,6.1,13.7,13.7v54.7c0,7.6-6.1,13.7-13.7,13.7h-105.7
	c-7.5,0-13.7-6.1-13.7-13.7V315.7z"/>
<path class="st2" d="M401.5,315.7c0-7.6,6.1-13.7,13.7-13.7h105.7c7.6,0,13.7,6.1,13.7,13.7v54.7c0,7.6-6.1,13.7-13.7,13.7H415.2
	c-7.6,0-13.7-6.1-13.7-13.7V315.7z"/>
<path class="st9" d="M616.5,302h38"/>
<rect x="1683" y="397.5" class="st10" width="102" height="60"/>
<path class="st9" d="M1682.5,398h104.7"/>
<rect x="1664.5" y="294" class="st9" width="140" height="165"/>
<rect x="1664.5" y="302" class="st9" width="140" height="157"/>
<path class="st11" d="M1664.5,302l9,34.9V494l-9-34.9V302z"/>
<path class="st11" d="M1682.5,302l-9,34.9V494l9-34.9V302z"/>
<path class="st12" d="M1667,333.5l3,11.6v70.4l-3-11.6V333.5z"/>
<path class="st12" d="M1679,333.5l-2,7.8v74.2l2-7.8V333.5z"/>
<path class="st11" d="M1787.5,302l8,31v161l-8-31V302z"/>
<path class="st11" d="M1804.5,302l-8,31v161l8-31V302z"/>
<path class="st12" d="M1790,333.5l2,7.8v74.2l-2-7.8V333.5z"/>
<path class="st12" d="M1801,333.5l-2,7.8v74.2l2-7.8V333.5z"/>
<rect x="1211.5" y="294" class="st8" width="140" height="165"/>
<rect x="1317.5" y="302" class="st9" width="34" height="157"/>
<rect x="1283.5" y="302" class="st9" width="33" height="157"/>
<path class="st2" d="M1324.5,322c0-5.5,4.5-10,10-10l0,0c5.5,0,10,4.5,10,10v66c0,5.5-4.5,10-10,10l0,0c-5.5,0-10-4.5-10-10V322z"/>
<path class="st2" d="M1290.5,321.5c0-5.2,4.2-9.5,9.5-9.5l0,0c5.2,0,9.5,4.2,9.5,9.5v67c0,5.2-4.2,9.5-9.5,9.5l0,0
	c-5.2,0-9.5-4.2-9.5-9.5V321.5z"/>
<rect x="1245.5" y="302" class="st9" width="33" height="157"/>
<rect x="1211.5" y="302" class="st9" width="33" height="157"/>
<path class="st2" d="M1252.5,321.5c0-5.2,4.2-9.5,9.5-9.5l0,0c5.2,0,9.5,4.2,9.5,9.5v67c0,5.2-4.2,9.5-9.5,9.5l0,0
	c-5.2,0-9.5-4.2-9.5-9.5V321.5z"/>
<path class="st2" d="M1218.5,321.5c0-5.2,4.2-9.5,9.5-9.5l0,0c5.2,0,9.5,4.2,9.5,9.5v67c0,5.2-4.2,9.5-9.5,9.5l0,0
	c-5.2,0-9.5-4.2-9.5-9.5V321.5z"/>
<path class="st9" d="M1262.5,302h38"/>
<path class="st13" d="M755.7,320.6c-13.2,6.5-26.2,12.9-39.3,19.4c-0.2,10.2,0.9,19.5,2.7,23.3C730,357.2,753.8,329.8,755.7,320.6z
	 M808.9,278.4c-0.1,0.2-0.1,0.3-0.2,0.4c0.2,0,0.4,0.1,0.6,0.1C809.2,278.8,809.1,278.5,808.9,278.4z M839.5,274.9
	c-2.4,0-5,0.1-7,1.2c-9,4.7-17.8,9.7-26.5,14.8c-1.3,0.8-2.5,2.4-3,3.8c-1.9,4.9-3.4,10-5.4,15.6c2.3-0.4,4.2-0.4,5.9-0.9
	c14.1-4.2,28.3-8.3,42.3-12.7c10.9-3.4,21.1-8.2,30.7-14.5c1.2-0.7,2.1-1.7,4.3-3.6c-4.3-0.6-6.9-1-9.5-1.4
	C860.7,275.7,850.1,274.7,839.5,274.9z M722.9,252.1c-5.9-0.5-11.1,1.9-16.5,4.2c1.5,5.8,2.9,11.2,4.2,16.5c0.5,2.1,1,4.2,1.1,6.4
	c0.7,11.1,1.1,22.2,1.8,33.3c0.4,6.7,1.1,13.3,1.8,20.2c1.2-0.1,2,0.1,2.5-0.2c16.1-7.8,31.6-16.7,46.5-26.6
	c1.3-0.9,2.7-2.2,3.4-3.7c3.3-7,6.3-14.1,9.4-21.2c0.9-2,0.3-3.7-1.2-5.3c-4.8-5.3-10.2-9.6-16.5-12.8
	C748.1,257,735.9,253.2,722.9,252.1z M893.3,243.6c-4.2,2.2-7.5,4.6-10.9,6.7c-3.5,2.1-7.1,4.2-10.7,6.2c-3.8,2.1-7.7,4-11.5,6.1
	c-3.5,2-7.6,3-10.8,5.9c0.9,0.4,1.4,0.8,1.8,0.8c11.3,1.6,22.5,3.1,33.8,4.7c1.8,0.3,3.4,0,4.8-1.1c1.7-1.3,3.4-2.7,5.1-4
	c-0.5-4.4-1-8.4-1.3-12.5C893,252.4,894.2,248.4,893.3,243.6z M919.6,241.1c-1.5,2.1-2.9,4-4.3,5.9c-1.2,1.8-2.4,3.6-3.6,5.4
	c-1.3,2-2.7,4-4.1,6c-1.2,1.8-2.6,3.5-3.7,5.3c-1.2,1.9-3.6,3.3-2.5,6.7c1.9-1.2,3.5-2.3,5-3.3c0.8-0.5,1.7-1,2.6-1.2
	c0.6-0.1,1.3,0.5,1.8,1c0.2,0.3,0.2,1.1,0,1.3c-1.2,1.2-2.4,2.3-3.6,3.5c-1.2,1.1-2.2,2.3-3.3,3.4c2.7,4.7,7.3,3.6,11.4,5.3
	c4.6-8.2,6.1-16.2,6.4-24.5C921.9,248.6,921.5,245.3,919.6,241.1z M895.9,215.9c-2.7,0.3-3.7,2.3-4.2,4.4
	c-1.4,5.4-1.2,10.7,0.8,15.9c2.4-0.4,3.2-1.7,3.8-3.4C898.3,227.1,898.1,221.5,895.9,215.9z M498.3,207c-0.1,0-0.2,0.3-0.4,0.5
	c0.2,0.2,0.4,0.4,0.5,0.4c0.8,0,1.7-0.2,2.5-0.2c0-0.2-0.1-0.6-0.1-0.6C500,207,499.1,207,498.3,207z M476.5,149
	c0,0-0.1,0.3-0.2,0.4c0.2,0.1,0.4,0.1,0.6,0.2c0.1-0.2,0.1-0.3,0.2-0.5C476.9,149.1,476.8,149,476.5,149z M460.4,126.5
	c1.4,5.9,3.7,9.5,6.2,12.9c1.3,1.7,3.1,2.5,6.3,2.3C469.1,136.4,466,131.6,460.4,126.5z M783,125c-0.7-0.3-1.3,0-2.5,0.8
	c-1.9,1.3-4.2,2.2-5.1,5c3.7,0.1,6.9-1.1,10.8-2.7C784.6,126.3,783.8,125.3,783,125z M567.6,120.7c-3.7,0.8-7.2,2-10.4,4.3
	c1.1,3.9,2.5,7.3,5,11.2C567.1,128.4,567.9,126.1,567.6,120.7z M574.7,116.4c-0.8,2.3-1.4,4.3-2.1,6.3c-1.7,4.8-3.3,9.6-5.3,14.2
	c-2.6,5.9-2.8,5.8-0.4,11.4c0.7,1.6,1.3,3.1,2,4.7c9.2,22.1,18.6,44.2,25.4,67.2c0.8,2.5,1.8,5,3.2,7.3c3.7,6.2,7.5,12.5,11.6,18.4
	c22,31.7,50.3,56.8,81.9,78.5c0.9,0.6,2,0.8,3.2,1.3c0.7-6.2-1.2-47.2-2.9-63.4c-0.1-1.3-0.6-2.6-1-4.2c-1.9-0.2-3.6-0.3-5.2-0.7
	c-4.5-0.9-9-1.9-13.4-2.9c-0.9-0.2-1.8-0.7-2.5-1.3c-0.4-0.4-0.7-1.4-0.4-1.9c0.2-0.5,1.1-1.2,1.6-1.1c2.8,0.5,5.6,1.2,8.5,1.8
	c3.5,0.8,7,1.6,10.7,0.7c1.2-5.3-0.1-9.2-4.8-11.8c-2.5-1.4-4.8-3.3-7-5.2c-4-3.4-8-7-11.9-10.7c-1-0.9-1.6-2.4-2.2-3.6
	c-0.1-0.3,0.2-0.9,0.5-1.2c0.3-0.3,1-0.5,1.2-0.4c1.2,0.8,2.4,1.6,3.3,2.6c4.8,5.2,10.3,9.5,16,13.7c0.9,0.7,1.9,1.8,3.1,0.5
	c0.2-3-1.2-5.1-3.5-6.7c-4.2-2.9-8.2-6-12.4-8.9c-1.4-1-2.8-1.9-4.2-2.8c-1-0.7-2-1.6-1.2-3c0.7-1.3,1.9-1.3,3.1-0.5
	c2.6,1.7,5.2,3.5,7.9,5.2c2.4,1.5,4.4,3.7,7.4,4.6c-1.5-19.4-20.6-68.6-34-87.6c-8.3-1.4-17-2.5-25.5-4.3c-8.8-1.8-17.5-4-26-6.7
	C591.1,123.2,583.2,119.7,574.7,116.4z M768.5,98.8c-3.3,2.6-6.1,4.6-8.6,6.8c-19.8,17.5-39.4,35.1-59.2,52.5
	c-3.4,2.9-5.3,6.1-4.9,10.6c0.3,3-0.9,6.1,0.7,9.8c1.1-0.9,1.8-1.5,2.4-2c8.7-7.4,17.2-14.9,25.9-22.2c10.3-8.7,21.7-15.3,34.2-20.3
	c5.7-2.2,10.8-5.6,15.5-9.2c2.1-1.6,4.3-3.2,5.4-6.4C776.1,112.5,773.4,105.5,768.5,98.8z M542.2,77.5h3.4l8.4,14
	c0.3,0.3,0.8,0.4,1.7,0.8l4.9-14.8h4l-3.2,11.4c-0.7,2.5-1.6,5.1-2.4,7.7c2.9,4.6,6.2,8.7,11.8,11.1c0.5-1.1,1.1-2.1,1.4-3.1
	c1.1-4.7,2.1-9.4,3.1-13.7c1.9-0.6,3.3-0.5,3.3,1.1c0,1.9-0.5,3.8-0.9,5.7c-0.8,4-1.6,8-2.4,11.8c12.1,10.4,53.9,21.2,69.2,18.9
	c1-1.7-0.5-2.7-1.1-3.8c-0.7-1.3-1.5-2.5-2.5-4.1c0.7-2,1.4-4.3,2.2-6.5l-0.5-36.3h6.8l0.7,1.5c3.1,10.9,3.4,22,0.8,33
	c-0.8,3.6-0.4,6.5,1.7,9.6c3.4,5,6.3,10.3,9.5,15.5c0.3,0.5,0.9,0.9,2,1.9c0.1-1.9,0.2-3,0.1-4.1c-0.8-10.1-1.5-20.3-2.5-30.4
	l0.8-26.9h5.8l-1.2,28.6c1.6,16.1,3.7,32.2,5.8,48.3c0.4,2.8,1.1,5.7,2.1,8.4c2.5,6.5,5.3,13,8,19.5c0.3,0.8,0.5,2,2.2,1.9
	c0.1-1.8,0.2-3.7,0.3-5.5c0.9-10.6,1.8-21.2,2.8-31.8c0.1-0.7,0.1-1.6,0.5-2.1c4-4.1,5.4-9.7,8-14.6c8-14.8,18.2-27.9,30.1-39.8
	l13-12.9h6.6l-3.8,4.1c-6.3,6.6-13,13.1-19.1,19.9c-10.5,11.6-18.7,24.7-24,39.5c-1,2.7-2,5.4-1.7,9c1.3-0.6,2.4-0.9,3.2-1.6
	c9.7-8,19.5-15.9,29-24.2c16-14.1,32.7-27.4,49.4-40.6l5.6-6.1h5.8l-0.8,0.9c-0.4,0.8-1.2,1.6,0.2,2.8l6.2-3.7h6.5l-0.3,0.6
	c-3.6,3.3-7.6,6-12.2,7.8c-2.2,0.9-4.5,1.9-6.8,2.6c-4.4,1.3-7.7,3.9-11,7.2c2.7,6.8,6.2,13,10.1,19.7c3.5-3.1,5.3-6.5,7.6-9.5
	c0.9-1.1,1.9-2.2,3-3.1c0.2-0.2,0.9,0,1.3,0.2c0.4,0.3,0.8,0.8,0.7,1.2c-0.2,0.9-0.5,1.9-1,2.6c-1.6,2.4-3.3,4.8-5.1,7.5
	c0.7,1.1,1.4,2.2,2.5,3.7c-1.3,1.2-2.7,2.5-4.4,4.1c0.9,1.4,1.8,3,2.9,4.8c1.6-0.5,3-0.8,4.3-1.4c4.9-2.7,9.7-5.5,14.5-8.3
	c1.2-0.7,2.4-1.6,3.8-2.2c0.4-0.2,1.3,0.4,1.8,0.8c0.2,0.2,0.2,1.1-0.1,1.3c-0.8,0.9-1.6,1.7-2.6,2.4c-10.9,8-23.1,13.6-36.4,15.6
	c-11.6,1.7-21.8,6.4-31.6,12.1c-15.1,8.9-28.1,20.6-40.2,33.3c-1,1.1-1.8,2.2-2.8,3.3c-4.4,4.9-6.5,10.5-5.6,17.3
	c0.8,6,1.1,12.1,1.3,18.1c0.3,5.7,2.3,10.9,3.6,16.3c1,4.2,4.8,5.9,7.5,8.6c1.9,2,4.3,2,6.7,2.1c16.2,0.5,31.7,4.1,46.3,10.9
	c4.6,2.2,8.9,4.8,13.4,7.3c2.1,1.2,4,2.5,6.5,4.1c0.8-2.2,1.8-3.9,2.1-5.7c0.5-3.1,2.6-4.5,5.3-5.3c1.4-0.4,2.8-0.6,4.2-0.9
	c19.2-4.2,34.8-14.1,47.5-29c3.8-4.4,6.8-9.4,8.6-15.6c-1.6-1.2-3.2-2.6-5-3.7c-4.8-3-7.6-7.4-8.9-12.8c-1.3-5.7-1.8-11.5-0.9-17.3
	c0.1-0.6,0.8-1,1.2-1.5c0.6,0.6,1.4,1,1.8,1.7c0.3,0.6,0.2,1.4,0.2,2.2c0,1.2-0.1,2.4-0.1,3.6c0,1.5,0,2.9,0.1,4.4
	c1.1,10.3,5.4,17.9,17.8,19.6c4.2-3.1,8.5-6.2,12.6-9.6c2-1.6,3.6-3.9,5.5-5.7c0.4-0.4,1.4-0.4,1.9-0.1s1.1,1.3,0.9,1.8
	c-1.7,4.8-3.3,9.7-7.1,13.3c-3.8,3.7-7.8,7.3-11.8,10.7c-5.7,4.9-11.1,10-16.1,15.7c-8.6,9.7-19.2,16.9-30.8,22.7
	c-5.4,2.7-11,5-17,7.6c-0.4,1.1-1.1,2.7-1.6,4.2c-8.8,31.3-24.6,58.8-44.8,84c-7.4,9.2-15.6,17.9-23.4,26.8
	c-3.4,3.9-3.4,3.8-2.2,9.7c1.2,0.7,1.7-0.3,2.3-0.9c16.4-17.5,33.2-34.7,47.8-53.7c7.1-9.3,13.4-19,18.2-29.7
	c3.4-7.5,6-15.3,7.1-23.6c0.2-1.4,0.4-2.9,0.7-4.3c0.9-4.6,2-5.6,6.6-6.2c8.2-1.1,16.3-1.9,24.6-1.9c2.7,0,5.3-0.2,7.8-1.3
	c16-6.9,31.8-14.2,46.5-23.7c1.6-1.1,3.1-2.2,4.7-3.3c0-2.1,0.1-4.1,0-6c-0.1-2.2-0.5-4.3-0.6-6.5c-0.5-7.5,0.9-14,8.5-17.7
	c-2.1-10.2-6.8-19.3-10-28.7c1.3-1.8,2.5-1.9,3.7-0.5c0.6,0.7,0.9,1.7,1.3,2.6c5.9,14.1,11.1,28.4,12.6,43.8
	c3.5,0.1,4.6-0.8,4.5-3.7c-0.1-4.1-0.5-8.2-0.2-12.3c0.9-13.9,7.9-24.6,18.2-33.5c1-0.9,2.2-0.8,3,0.6c0.2,2-1.6,2.8-2.7,3.9
	c-4.1,3.8-7.6,8.1-10.3,13c-4.6,8.5-5.4,17.4-3.8,26.8c0.3,1.7,0.7,3.3,1,5c0,0.2,0,0.5-0.1,1.4c-3.9,3.2-8.2,6.6-12.3,10
	c-2.5,9.7-2.8,16.2-0.7,23.4c1.2-1.1,2.2-2,3-3c5.7-8.1,11.2-16.4,16.9-24.5c1.2-1.7,2-4,4.8-4.8c0.4,0.7,1.4,1.6,1.2,2.1
	c-1.1,2.6-0.8,5.1-0.3,7.8c2,11.9,1.4,23.6-2.1,35.2c-0.6,2-1.2,4.1-1.8,6.5c2.1,0.6,3.6,1.1,5.1,1.5c2.3-1.1,2.2-3.2,2.5-5.1
	c1.8-11.8,2-23.6,1.8-35.5c0-2.6-0.8-5.3,0.9-8.2c0.8,0.4,1.8,0.6,2.2,1.2c0.5,0.7,0.6,1.8,0.7,2.8c0.8,16-0.1,31.9-2.7,47.8
	c-0.2,1.1-1,2-1.7,3.3c-6.8-1.7-13.4-3.3-19.9-4.9c-4.2-1-8.5-1.9-12.8-2.9c-1.7-0.4-3.2-0.4-4.9,0.2c-2.2,0.8-4.7,1.2-6.9,1.9
	c-1.1,0.4-2,1.2-3.4,2c0.9,1.3,1.6,2.6,2.5,3.6c7,7.3,14.2,14.6,21.2,22c3.3,3.5,6.3,7.3,9.4,11c0.5,0.7,0.7,1.7,0.8,2.6
	c0.1,0.8-1.5,1.9-2.1,1.4c-1.1-0.9-2.2-1.8-3.1-2.9c-9-10.9-19-20.7-29.1-30.4c-1.4-1.3-2.9-2.5-4.4-3.6c-3.2,0.6-5.3,2.7-8,3.9
	c-6.6,2.9-13.3,5.7-20.1,8.3c-4,1.6-8.1,3.3-12.6,2.6c-3.6,2.3-7.4,4.3-11.6,5.7c-9.9,3.3-19.6,7.1-29.4,10.5
	c-2.8,1-5.1,2.6-6.7,5.2c-8.8,14.6-19.9,27.4-30.5,40.6c-8.8,11-17.4,22.1-25.9,33.2c-2.8,3.6-5,7.7-7.6,11.5
	c-1.9,2.8-2.4,5.7-2.1,8.9c0.5,6.3,0.8,12.6,1.2,18.9c2.1,33.1,1.4,66.3,1.2,99.5c-0.1,18.6,0.2,37.3,0.2,56c0,1.2,0,2.4,0,3.3
	c-2.9,3.3-6.3,4-10.1,3.8c-5.6-0.1-11.1,0-16.5,0c-2.3-2-3.4-4-3.1-7c1.5-15.9,2.9-31.8,4-47.8c2.5-34.3,3.8-68.7,2.9-103.1
	c-0.6-24-2.1-47.9-3.7-71.8c-0.4-6.3-0.9-12.6-1.4-18.8c-0.1-1.1-0.4-2.3-0.7-3.8c-8.4,1.8-15.5,5.2-20.9,11.4
	c-4.1,4.7-7.7,9.9-11.4,15c-1,1.3-1.8,2.8-2.9,4.1c-0.3,0.4-1.6,0.6-1.9,0.3c-0.6-0.6-1.2-1.6-1.1-2.3c0-0.9,0.7-1.8,1.2-2.6
	c2.5-3.8,5.2-7.6,7.7-11.4c0.7-1.1,1.4-2.2,2.7-4.5c-5.1,1.6-8.4,4.1-12.2,5.4c-3.8,1.3-7.8,2.4-11.9,3.2c-4,0.8-8.1,0.5-11.8,0.2
	c-1-2.4-0.4-3.6,1.4-3.6c1.9-0.1,3.8,0.4,5.8,0.4s3.8-0.3,4.5-2.8c0.2-0.8,1.8-1.8,2.8-1.8c8.8,0,15.6-4.7,22.7-8.9
	c2.1-1.2,4.1-2.2,6.6-2.7c4.5-0.7,9-2,13.5-4.5c-1.4-1.6-2.5-3-3.9-4.3c-10.4-9.4-21.1-18.6-31.3-28.2c-10.5-10-20.7-20.3-31-30.7
	c-3.6-3.6-6.8-7.5-9.9-11.6c-2.9-3.8-6.4-6.3-11.1-7.6c-8.4-2.2-16.8-4.8-25.1-7.3c-11.8-3.5-23.7-7-34.9-12.3
	c-7.5-3.5-14.6-7.6-21-12.9c-0.9-0.7-1.9-1.2-3-1.9c-2,2.1-2.5,4.5-3.2,6.8c-3,10.2-5.9,20.5-8.9,30.7c-1,3.4-2.3,6.9-3.5,10.2
	c-0.1,0.4-1.2,0.8-1.7,0.7c-0.5-0.1-1.3-0.9-1.3-1.4c0.1-1.4,0.5-2.8,0.8-4.2c4.3-15.1,8.7-30.2,13-45.3c0.1-0.4,0-1,0-1.7
	c-3.5-4.9-7.9-8.5-14.2-10.1c-9.8-2.6-19.7-4.8-30-4.7c-8.2,0.1-16.3-2.1-24.2-4.4c-0.5-0.2-1.1-0.3-1.3-0.6
	c-0.4-0.6-0.6-1.2-0.7-1.9c0-0.3,0.7-0.8,1-0.8c1.7,0.1,3.4,0.2,5,0.6c16.5,4.3,33,4.5,49.5,0.1c0.7-0.2,1.4-0.2,2.5-0.3
	c1.4,1.7,3,3.4,4.5,5.3c13.4,17.4,30.7,29.2,51.5,36.1c12.9,4.2,26.1,7.4,39.3,10.2c0.9,0.2,1.9,0,3,0c-0.2-1-0.2-1.7-0.6-2.3
	c-7-10.5-13.4-21.3-19.1-32.5c-1.8-3.5-4.2-6.4-6.9-9.2c-18.4-18.9-40.5-32.1-65-41.6c-9.5-3.7-19.1-7-28.7-10.1
	c-4.1-1.3-7.6-3-10.1-6.5c-3.8-5.4-8.9-8.6-15.3-10.2c-1.2-0.3-2.3-0.8-3.3-1.5c-1.2-0.8-1.1-2,0-3.4c2.1,0.5,4.4,1,6.6,1.5
	c1.6-1.6,0-2.8-0.5-3.9c-3.7-7.7-5.4-16-6.5-24.5c-0.1-0.6,0.2-1.4,0.6-2c0.2-0.3,0.8-0.6,1.2-0.6c0.4,0,1.2,0.2,1.2,0.5
	c0.4,1.6,0.8,3.3,0.9,4.9c0.4,3.8,1.7,6.8,4.7,9.4c6,5.3,10.7,11.9,15.3,18.4c3.2,4.4,6.8,8,11.8,10.3c3.5,1.6,6.8,3.8,9.8,6.2
	c3.1,2.5,6.5,4.1,10.1,5.5c10.7,4.1,21,8.7,31.1,14.1c14,7.4,26.6,16.8,38.6,27c1.3,1.1,2.6,2.1,4,3.1c0.1,0.1,0.4,0,0.9-0.1
	c0.5-3-1-5.6-1.9-8.3c-6.6-19.8-24.6-62.9-29.6-70.6c-3.8,0.7-7.8,1.5-11.8,2.1c-1.9,0.3-3.9,0.5-5.7,0.3c-1.3-0.1-2-1.2-1.4-3.1
	c5.2-1.7,11.2-1.2,16.9-3.9c-0.8-1.7-1.3-3.2-2.2-4.5c-3-4.2-5.1-8.9-6-13.9c-0.8-4.2-2.6-7.8-4.8-11.3c-2-3.3-4-6.6-5.9-10
	c-0.2-0.4,0.2-1.6,0.6-1.8c0.4-0.3,1.6-0.2,2,0.2c1.8,2.2,3.5,4.6,5.5,7.2c0.9-0.6,1.8-1.3,2.8-1.7c0.5-0.2,1.7,0.3,1.8,0.7
	c0.3,1.6,0.3,3.3,0.5,5c0.2,2.1,0.1,4.5,1,6.4c3.3,7.2,7,14.3,10.5,21.3c5.8-0.8,7.5-1.5,14.5-5.8c-0.9-0.8-1.6-1.8-2.5-2.3
	c-4.5-2.8-9-5.6-13.3-8.2c-0.1-6.1-0.1-6.1-3.7-10.8L542.2,77.5z"/>
<path class="st13" d="M1846.8,300.5c6.2,8.1,14.6,15.2,20.4,17.8C1862.3,309.5,1855,304.4,1846.8,300.5z M1812.3,267.2
	c-2,0.9-2.6,2.6-1.5,4.1c1.3,1.8,3.1,3.3,6.3,2.2C1815.3,271.1,1814.9,268.4,1812.3,267.2z M1946.8,233.1c-1.4,8,0,14.8,0.8,21.6
	c1.4-3.8,1.9-7.7,2.5-11.5C1950.7,239.8,1950.2,236.7,1946.8,233.1z M1954.2,212.5c-3.1,0-5.7,1.2-6.4,4.3c-0.5,1.9,0.4,4.2,0.7,6.3
	c0.4,2.2,1,4.4,2.8,6.4C1953.5,223.9,1954.4,218.8,1954.2,212.5z M1960.9,175.6c-2.7,2.6-5.3,5.3-8.1,7.8c-1.3,1.3-1.6,2.8-1.7,4.5
	c-0.6,5.9-1.3,11.8-1.9,17.7c-0.1,1.1,0,2.2,0,3.5c1.2-0.2,1.9-0.4,2.6-0.5c3.2-0.6,4.9-2.6,5.2-5.9c0.2-1.9,0.7-3.7,1.1-5.6
	c1.4-7,2.8-13.9,4.1-20.9C1961.8,176,1961.3,175.8,1960.9,175.6z M1995.5,139.6c-6.6,7-12.6,13.3-18.5,19.8c-0.8,0.8-1.2,2-1.6,3.2
	c-3.8,13-6.8,26.3-8.5,39.7c-0.1,0.4,0.2,0.9,0.4,1.3c1.4,1,1.4,1,2.6,3.3c-1.3,0.8-2.7,1.6-4.3,2.6c-2,10.3-3,21-4.1,31.6
	c-0.3,3.5,0.2,6.6,2.5,9.3c0.2,0.2,0,0.9-0.1,1.9c-3.1,0.4-3.6,2.9-3.6,5.7c0,9.1,0,18.1,0.1,27.2c0,1.4,0,3,0.5,4.2
	c1.1,2.8,0.9,5.6,0.9,8.4c0,16.7,0.1,33.3,0.2,50c0,1.8,0.4,3.6,0.5,5.4c0.5,0,0.9,0.1,1.4,0.1c0.7-2,1.5-4,2-6
	c2.4-9.2,5.1-18.3,7.1-27.6c4.5-21.4,8.6-42.9,12.9-64.4c1.4-7.2,2.4-14.7,4.7-21.6c3.8-11.2,5.4-22.7,6.7-34.2
	c2-18.8,0.9-37.6-0.3-56.4C1996.8,142.2,1996.1,141.2,1995.5,139.6z M1880.9,126.5c0.1,1.5,0,2.4,0.2,3.3c1.2,8.5,2.4,17,3.6,25.4
	c0.2,1.6,0.6,3.2,1.1,4.9c8.7,27.5,18.3,54.6,29.7,81.1c6.3,14.7,13,29.1,20.6,43.1c0.7,1.3,0.9,3.4,3.2,3.5
	c0.1-0.7,0.2-1.4,0.2-2.1c-2.2-24.9-3.3-49.9-2.9-74.9c0.1-3.4-0.5-6.6-1.8-9.7c-3.3-8.2-6.3-16.5-9.8-24.5c-3.8-9-7.7-18-12.1-26.6
	c-3.1-6.1-7.2-11.7-10.9-17.6c-1.2-1.9-2.7-3.4-5-3.8C1892,127.8,1887,126.2,1880.9,126.5z M2048.6,108.3c-5.1,1.5-9.7,2.5-14.2,4.1
	c-6.5,2.2-12.9,4.7-19.3,7.2c-4.9,1.9-8.7,5.7-10.1,10.5c-2,7.1-3.7,14.3-3.1,21.8c1.7,23.1,1.5,46.1-1.6,69.1
	c-0.5,3.8-1.1,7.5-1.5,11.3c-0.1,1,0.6,2,1,3.2c1.1-0.6,1.8-0.9,2.2-1.4c1.5-1.5,3-3.1,4.4-4.7c17.8-20.2,31.6-42.9,42.8-67.2
	c1.2-2.8,2-5.8,2.6-8.8c1.7-8,1.5-16.1,0.8-24.2C2052,122.5,2051.3,115.7,2048.6,108.3z M1999.2,107.8c-1.5,2.3-2.5,3.7-3.3,5
	c-4,7-7.9,14.1-11.9,21.1c-2.2,3.8-3.8,7.7-4.6,11.9c-0.1,0.8,0,1.5,0,3.2c6-5.4,10.7-10.7,15.2-16.2c0.7-0.8,0.9-2.2,1.1-3.2
	c0.2-1.4,0-2.8,0-4c2.7-1.8,5-3.4,7.3-4.9C2003,116.2,2001.1,112.5,1999.2,107.8z M1770.4,101c1.4,7.9,3.9,15.3,6.8,22.6
	c0.5,1.3,1.4,2.5,2.4,3.4s2.3,1.8,4,0.4C1780.5,118.1,1776.1,109.2,1770.4,101z M1990.6,84c-2.5,1.8-4.5,3.3-4.9,6.2
	c-1,8-2.1,16-1.1,24.1c0.1,0.9,0.5,1.7,1,3.2c4.7-5.7,7.7-11.5,11.1-17.2C1994.8,94.8,1993.4,89.4,1990.6,84z M1858.3,77.5h5
	l14.2,36.6c0.4,1.4,0.8,2.8,1,4.2c0.4,2.5,1.9,3.7,4.4,3.9c3.2,0.3,6.5,0.7,10.2,1.1c-1.6-4.3-5.7-5.7-7.8-9.2
	c0.6-7.4-1-14.8-4.3-21.9c-0.3-0.6-0.4-1.4-0.4-2c0-0.4,0.4-0.9,0.8-1.1c0.3-0.2,1-0.3,1.3-0.1c0.6,0.4,1.1,0.9,1.5,1.5
	c2.3,4.4,4.3,9.1,4.7,14.2c0.1,2.2,0.5,4.3,1,6.4c0.2,1,1.2,1.9,1.8,2.8c2.3-1.3,2.1-3.3,2.5-5.1l6-31.2h3.7l-4.4,23.4
	c-0.8,4.4-1.4,8.9-2.1,13.4c-0.4,2.8,0.2,5,2.2,7.1c9.3,9.7,16.1,21.2,21.9,33.3c4,8.4,7.7,16.9,11.6,25.4c1.1,2.4,2.2,4.7,3.6,7.5
	c1.8-1.3,3.3-2.4,4.7-3.5c6.9-5.8,13.8-11.7,20.8-17.5c2.5-2.1,3.8-4.7,4.7-7.8c3-11,6.3-22,9.3-33c1-3.7,1.7-7.4,1.9-11.2
	c0.4-7.6,0.2-15.3,0.6-22.9c0.2-4.9-0.4-9.5-2.2-14l-0.1-0.2h11.7l-0.3,0.4c0.1,0.4,0.3,0.8,0.5,1.1c0.1-0.1,0.3-0.3,0.5-0.5
	l-0.5-1.1h8.3L1996,78c-0.5,0.5-0.8,1.1-1.4,2c0.8,5,3.2,9.6,5.1,15.2c1.3-1.6,2.1-2.4,2.7-3.4l9-14.3h5.7l-12.7,21
	c-1.7,2.7-2,5.3-0.7,8.1c0.5,1.1,1,2.2,1.7,3.7c0.8-1,1.5-1.5,1.9-2.3c0.7-1.5,1.2-3.7,3.3-2.6c2.1,1,0.5,2.9,0.2,4.4
	c-0.3,1.8-1.6,3.4-0.8,5.8c4.6-5,9.4-9.4,12.1-15.3l8-22.6h4.7l-1.9,6.7c-1.8,5.2-4,10.2-5.9,15.3c-0.5,1.2-0.6,2.6-1.2,4.9
	c3-1.7,5-2.8,7-4c8.2-4.9,16.4-9.7,24.6-14.6c1.4-0.9,2.9-1.7,4.5-2.2c0.7-0.2,1.7,0.3,2.5,0.5c-0.2,0.8-0.2,2-0.7,2.4
	c-1.3,1-2.9,1.7-4.3,2.5c-10.8,6.5-21.6,13.1-32.4,19.6c-1.2,0.7-2.3,1.7-4.8,3.6c2.8-0.6,3.9-0.8,5-1.2c4.3-1.3,8.7-2.7,13-4.1
	c4.1-1.4,8.2-2.1,13,0c0.8,3.8,1.9,7.9,2.6,12.1c0.7,4.5,1.2,9,1.6,13.5c0.3,4.2,0.3,8.4,0.5,13.2c2.9-1.3,4.3-3.3,5.9-4.8
	c9.2-8.6,18.5-17.2,27.7-25.8c1.6-1.4,3.4-2.6,5.2-3.7c0.5-0.3,1.5,0.4,2.3,0.6c-0.1,2.8-2.1,3.5-3.5,4.7c-11.1,9-21.4,19-31.1,29.5
	c-4.1,4.4-5,6.4-6.2,12.9c1.6-1.2,2.9-2.1,4.1-3.1c5.1-4.3,10.2-8.6,15.4-12.8c0.9-0.8,1.9-1.5,2.9-2c1.4-0.5,2.1,0.4,2.6,1.6
	c-0.8,2.6-3.2,3.5-4.9,5.1c-8,7.1-16.1,14.2-24,21.4c-2.2,2-4.2,4.7-5.5,7.4c-12.4,24.6-28,47.1-45.7,68.2c-4.9,5.9-8.3,12-9.2,19.6
	c-0.6,5.4-1.9,10.7-2.9,16.6c2.7,0.1,4.8,0.3,6.9,0.2c34.3-1.7,67.7-7.6,99.9-19.6c3.1-1.2,6.2-2.2,9.7-2.2c2.5,0,5.1-1.1,7.4-2.2
	c7.2-3.4,13.6-7.9,19.8-12.7c1.3-1,2.6-2.2,4.1-2.9c1.2-0.8,2.2-0.1,2.7,1.6c-4,5.2-10.4,7.7-16,13.3c3.4-0.6,5.6-0.9,7.8-1.4
	c3.5-0.8,6.9-1.8,10.4-2.6c1.6-0.3,3.3-0.4,4.9-0.5c0.3,0,1,0.6,1,0.9c0,0.7-0.2,1.6-0.6,1.9c-1,0.6-2.2,1-3.3,1.2
	c-9.8,2.1-19.6,4.2-29.3,6.3c-1.2,0.2-2.4,0.2-3.5,0.6c-6.8,2-13.7,4.1-20.5,6.3c-1.1,0.3-2.1,0.9-3.6,1.5c1,1.4,1.5,2.4,2.3,3.1
	c5.6,5.4,11.9,9.6,18.8,12.8c1.3,0.6,2.6,1.2,3.7,2.1c1.2,0.9,0.7,2.1-0.2,3.1c-7.5-1.5-10.2-3.1-31-19.3c-14.8,4-30,7.8-45.5,10.3
	s-31,4.9-46.7,7.4c-1.6,1.8-1.7,4.3-2.2,6.5c-3.8,18.4-7.3,36.9-11.5,55.3c-2.9,12.5-6.5,24.9-10.1,37.2c-1.1,3.7-1.7,7.4-1.5,11.2
	c0.9,16.4,1.7,32.9,2.4,49.3c1,24.8,1.3,49.6-0.2,74.4c-1.2,19-2.5,38.1-3.5,57.1c-0.3,6.2,0,12.4,0,18.3
	c-7.4,3.8-11.3,4.2-28.3,2.8c-2.2-2.1-1.5-4.8-1.1-7.3c0.9-6.6,1.7-13.2,2.9-19.8c7.8-45.5,10.6-91.4,8.9-137.5
	c-0.2-5.4-1.3-10.2-3.7-15.1c-9.5-19.3-20.9-37.5-33.5-54.8c-4.4-6-9-11.7-13.4-17.7c-2.7-3.7-6-6.7-9.8-9.3
	c-14.5-10.2-28.2-21.3-40.4-34c-4.5-4.6-8.9-9.3-12.8-14.5c-3.8-5-8.5-8.2-14.4-10.7c-1.4,1.2-2.8,2.4-4.1,3.7
	c-6.8,7.1-13.5,14.1-20.3,21.2c-1.1,1.2-2.3,2.4-3.5,3.5c-0.9,0.8-1.9,1.5-3.2,0.8c-1-0.6-1-2.4,0.4-3.7c4.4-4.7,9-9.2,13.4-13.9
	c4.3-4.5,8.6-8.9,12.7-14.2c-1.4-1-2.4-2-3.5-2.6c-13.3-7.9-26.5-16.1-38.9-25.4c-2.6-2-5.8-3.4-8.9-4.5c-9.9-3.5-19.9-6.7-29.8-9.9
	c-1.8-0.6-3.6-1.1-5.5-1.7c-1.3-0.4-2.9-0.8-2.8-2.7c0.1-1.2,1.5-1.6,3.6-1c1.1,0.3,2.3,0.6,3.4,1c11.6,3.8,23.1,7.5,34.6,11.2
	c0.9,0.3,1.8,0.4,2.5,0.6c1.3-1.5,0-2.4-0.5-3.3c-4.9-8.2-9.9-16.3-14.9-24.4c-0.6-1-1.3-2.1-1.5-3.2c-0.1-0.6,0.9-1.4,1.5-2.2
	c3,2.1,4.1,5.1,5.8,7.6c6.2,9.6,12.4,19.2,18.7,28.8c2,3,4.2,5.8,8.2,7.2c4-7.2,5.8-15.1,7.6-22.8c1.8-7.9,2.8-15.9,4.1-23.8
	c2.8,0.1,3.5,0.4,3.3,2.2c-0.5,5-0.8,10-1.9,14.9c-1.9,8.8-4.4,17.6-6.7,26.3c-0.5,2-1.1,4.1-1.8,6.3c4.5,4.3,9.8,6.9,14.3,9.4
	c2.1-2.1,4-3.9,6.2-6c-0.5-1.1-1.4-2.8-2.1-4.5c-0.8-1.7-1.7-3.4-2-5.2c-0.5-3.1-3.2-4.7-4.4-7.2c-0.1-0.3,0.1-1,0.3-1.3
	s0.8-0.6,1.2-0.6c0.9,0.2,2,0.4,2.5,1c1.5,1.8,3.2,3.6,4.2,5.6c5.2,9.9,11,19.5,17.4,28.7c2.2,3.2,4.9,5.7,8.4,7.5
	c6.8,3.5,13.5,7.1,20.1,10.9c5.1,2.9,10.7,5,14.9,9.5c2.9-7.3,4.6-21.2,3.3-27.6c-0.5-2.3-1.3-4.7-2.6-6.6c-2.2-3-2-6.1-0.1-8.6
	c2.7-3.7,3.4-7.8,4.4-12c1.5-6.3,2.9-12.6,4.3-18.8c0.2-0.9,0.4-1.9,0.9-2.7c0.3-0.5,1.2-0.9,1.7-0.8s1.2,0.8,1.4,1.4
	c0.2,0.9,0.1,1.9-0.1,2.8c-1.4,6.5-2.8,13-4.3,19.5c-0.5,2.3-1.3,4.6-0.3,7.2c2.3-0.6,3.2-2.7,4.6-4.2c3.2-3.3,6.5-6.3,10.8-8.1
	c0.7-0.3,2,0,2.5,0.5c1,1,0.5,2.2-0.6,3c-1.3,1-2.8,1.8-4.2,2.8c-5.8,4.1-9.7,9.8-12.9,16c-0.7,1.4-0.8,3.3-0.5,4.8
	c1.8,7.8,1.1,15.6,0.4,23.5c-0.4,4.5-0.5,9.1-1,13.6c-0.3,2.9,0.6,5,2.4,7.2c6.3,7.5,12.6,14.9,18.6,22.7
	c13.1,17,25.9,34.2,38.9,51.3c1.4,1.9,2.8,3.6,4.3,5.6c2-1.9,1.2-3.9,1.2-5.6c-0.2-13.3-0.5-26.7-0.8-40.1c-0.1-3.3-0.3-6.7,0-10
	c0.9-9.3-1.7-17.7-5.4-26.2c-11.9-27.3-23.3-54.8-34.9-82.3c-2-4.8-3.9-9.7-5.6-14.7c-1.5-4.4-4.1-7.9-7.6-11
	c-11.5-10.3-25-16.5-40.2-18.8c-14.7-2.2-14.7-2.2-28.5,3c-10.5,3.9-21,7.9-31.4,11.9c-1.8,0.7-3.5,1.5-5.4,2
	c-0.8,0.2-1.8-0.2-2.5-0.6c-0.7-0.5,0.1-2.3,1.3-2.8c1.5-0.7,3.1-1.3,4.7-1.9c7.3-2.8,14.7-5.7,22-8.5c1.5-0.6,3.2-0.9,4.4-2.7
	c-8.6-1-17.1-2-25.5-3.1c-7.1-0.9-14.1-2.3-20.8-5c-1.3-0.5-2.6-1.1-3.8-1.9c-0.4-0.3-0.8-1.2-0.7-1.8c0.2-1.2,1.3-1.4,2.2-1.1
	c3.6,1.2,7.1,2.8,10.8,3.8c10.2,2.8,20.7,3.3,31.2,4.1c3,0.2,6.1-0.5,9.8-0.9c-0.8-1.7-1.2-3-2-4.1c-6.9-9.1-13.9-18.2-20.8-27.3
	c-1.3-1.7-2.5-3.4-3.7-5.2c-0.2-0.2,0.1-1.1,0.4-1.2c0.5-0.3,1.5-0.7,1.8-0.5c1.3,1,2.5,2.2,3.5,3.4c7.4,9.4,14.7,18.8,22,28.2
	c1.5,1.9,2.9,3.8,4.3,5.8c7.7,0.3,15.3,0.3,22.8,1c7.4,0.7,14.7,2,21.5,4.8c7,2.9,13.9,6.1,21.3,9.3c0-0.9,0.2-1.8,0-2.6
	c-1.1-3.7-2.5-7.2-3.6-10.8c-0.8-2.8-2.5-4.5-5-5.7c-8.8-4.3-17.3-9-26.2-13.1c-20.6-9.4-41.3-18.5-62-27.7
	c-9.6-4.3-19.6-7.3-29.7-10.2c-1.8-0.5-3.7-1-5.4-1.8c-1.2-0.7-1.1-2,0.2-3.4c5.4,1.4,11.1,2.9,17.2,4.5c0.1-3.7-1.5-6.4-2.3-9.2
	c-1-3.2-2-6.4-3-9.5c-0.9-3-1.8-5.9-2.7-9.1c1-0.9,2-1.8,3.1-2.9c-1.2-2.3-2.5-4.5-3.8-6.8c-0.4-0.8-0.9-1.7-1-2.6
	c-0.1-0.5,0.4-1.5,0.9-1.7s1.5,0,1.9,0.4c0.8,0.8,1.4,1.9,2,2.9c7.6,12.9,15.1,26,20,40.3c0.9,2.5,2.4,3.9,4.7,4.9
	c8.5,3.8,16.9,7.7,25.5,11.4c18.2,7.8,36.4,15.5,54.6,23.2c1.5,0.7,3.1,1.2,5.2,2c0-1.3,0.2-2.3,0-3c-1.1-2.8-0.8-5.5-0.8-8.4
	c0.1-10.5-0.8-21-2.6-31.3c-0.1-0.7-0.6-1.2-1.1-2.1c-6.5-1.3-13.1-1-19.7-0.8c-2.4,0.1-4.7,0.1-7.1-0.1c-0.4,0-0.9-1-1.1-1.6
	c-0.1-0.3,0.3-1,0.7-1.2c1.3-0.4,2.7-1,4.1-1c5.2-0.2,10.5-0.2,15.7-0.3c2.1,0,4.2,0,6.4,0c0.6-3.1-0.4-5.5-1-8
	c-2.8-10.9-6.5-21.3-11.2-31.3L1858.3,77.5z"/>
<path class="st13" d="M1009.5,563.4c-10.2-0.9-196.7-0.7-202.5,0.3c-0.2,1.5-0.6,3.1-0.6,4.7c0,11.1,0.1,22.2,0.2,33.3
	c0,1.2-0.3,2.4-0.7,3.5c-0.9,2.5-2,4.9-3,7.3c-2.4,1.4-4.8,1.2-7.1,0.3c-1.5-2.5-0.9-5.2-0.9-7.8c0.1-10.2,0.5-20.3,0.5-30.5
	c0-10.9-0.2-21.8-0.5-32.6c-0.2-10.9-0.7-21.8-1.1-32.7c0-1.2,0.2-2.4,0.4-3.9c1.4-0.3,2.8-0.7,4.2-0.8c1.7-0.1,3.4,0,5.1,0
	c67.3,0,134.7,0,202,0c2.9,0,5.8,0,8.4,0c2.1,2.7,1.6,5.5,1.7,8.1c0.2,8.5,0.3,16.9,0.4,25.4c0,3.2,0,6.3,2.5,8.8
	c1.4,1.4,1.5,3.1,1.2,4.7c-1.6,9.6-0.6,19.3-0.9,29c-0.2,5.8-0.3,11.6-0.1,17.4c0.2,5.2-1.3,9.9-2.5,15.2c-2.3,0-4.4,0-6.8,0
	c-0.6-5.7-0.2-11.2-0.2-16.7c0-5.3,0.2-10.6,0.2-16C1009.7,574.8,1010.1,569.3,1009.5,563.4z M1009.2,514.3
	c-1.2-0.4-1.8-0.9-2.5-0.9c-68,0-136,0-204,0c-0.7,0-1.3,0.4-2.5,0.8c0.7,1.1,1.1,2.5,1.8,2.7c1.6,0.5,3.3,0.4,5,0.4
	c65.1,0,130.2,0,195.3,0c1.7,0,3.4,0.1,5-0.3C1008.1,516.8,1008.5,515.4,1009.2,514.3z M904.7,531.1c22.5,0,44.9,0,67.4,0
	c9.9,0,19.8,0,29.7,0c1.9,0,3.9-0.1,5.8-0.3c0.5-0.1,1.4-1.1,1.3-1.3c-0.2-0.8-0.9-1.9-1.5-2c-2.4-0.3-4.8-0.4-7.2-0.4
	c-63.5,0-127,0-190.5,0c-1.9,0-3.9,0-5.8,0.1c-0.7,0-1.4,0.3-2.1,0.6c-0.4,0.2-0.8,0.8-0.7,1.1c0.1,0.6,0.5,1.7,0.9,1.7
	c2.4,0.3,4.8,0.5,7.2,0.5C841,531.1,872.8,531.1,904.7,531.1z M1009.3,542.9c-0.4-0.5-0.7-1.5-1.2-1.6c-2.4-0.2-4.8-0.3-7.2-0.3
	c-53,0-106.1,0-159.1,0c-11.1,0-22.2,0-33.3,0c-1.9,0-3.8,0.2-5.7,0.5c-0.4,0.1-0.6,1.1-1.1,1.9c1.5,0.2,2.7,0.5,3.8,0.5
	c67.5,0,135-0.1,202.5-0.2C1008.4,543.9,1008.8,543.3,1009.3,542.9z"/>
<path class="st14" d="M2286,562.7c8.4,0.9,15.4,11,13.5,19.3c-1.1,4.6-0.7,6.7,1.9,9.6c3.2,3.6,4.3,7.5,4.3,15.3
	c0,6.3,0,6.5-1.7,11.5c-0.6,1.7-0.6,2.4-0.8,8c-0.1,3.4-0.3,6.3-0.4,6.5c-0.3,0.5-0.2,4.7,0.2,7.6c0.7,4.7,0.6,16.1-0.1,18.3
	c-1.1,3.4-1,3.5,5,5.4c5.7,1.8,6,2.1,5.8,3.9c-0.1,1.6-1.8,6.2-3.9,10.6c-1.8,3.9-1.9,4.3-0.3,7.3c1.2,2.3,2.2,5,5.8,15.9
	c3.9,11.7,5.9,15.7,12.4,25.3c1.5,2.2,1,3.2-2.7,5.6c-4.8,3.1-14.7,6.3-21.5,7c-9,0.9-8.6,0.6-11.9,9.5c-2.9,7.7-3.5,10.3-3.2,13.4
	c0.4,4.3,1,5,7.3,7.9c9.3,4.3,9.7,4.7,21.6,16.5c12.2,12.2,12.8,12.5,19.9,12.6c5.9,0.1,7.4,1,10.1,6.6c0.9,1.8,2.2,3.9,3,5
	c2.7,3.4,1.7,5.1-2,3.2c-4.8-2.5-6.1-1.1-6.1,6.4c0,5.9-0.2,6.3-3.2,10.5c-4.5,6.1-7.5,8.5-9.1,6.9c-1.1-1.1-0.8-2.9,1-6.4
	c1.1-2.1,1.5-3.3,1.5-4c0-1.7-3.7-12.6-4.9-14.3c-3.7-5.4-8.5-8.8-24.4-17.5c-1.7-0.9-4.3-2.4-5.8-3.3c-4.7-2.8-10.4-6.2-12.7-7.6
	c-3.7-2.3-8.6-4.9-9.3-4.9c-0.9,0-1.1,0.4-0.9,3.5c0.2,3.3-0.2,8.3-0.9,12.9c-1.6,10-0.8,21.4,1.6,24.8c3,4.2,3.3,7.4,1.1,13.2
	c-0.5,1.4-1.1,3.4-1.4,4.4c-0.6,2.9-2,4-3.3,2.6c-0.5-0.5-0.6-0.9-1-3.8c-0.5-3.9-3.2-3.7-8.8,0.7c-4.5,3.5-8.6,4.2-17.9,3
	c-5.4-0.7-4.8-3.4,1-5.2c4.7-1.4,4.4-1.3,8.8-5.7c4.4-4.4,5-5.3,6.2-9c0.9-2.9,1-10.7,0.2-14.1c-0.3-1.1-0.6-2.9-0.8-3.9
	c-0.1-1-0.4-2.2-0.5-2.8c-0.1-0.5-0.4-1.9-0.6-3c-0.2-1.2-0.5-3-0.7-4.2c-1.1-5.7-1.7-8.6-2.1-10.4c-0.2-1.1-0.5-2.7-0.6-3.5
	s-0.3-2.1-0.5-2.9s-0.4-2.4-0.6-3.5c-0.1-1.1-0.4-2.6-0.6-3.3c-1.9-6.6-2.4-15.7-1.1-22c0.3-1.4,0.6-3,0.6-3.6
	c0.2-1.5,1.8-8.6,2.8-12.6c1.1-4.5,1-5-1.7-7.2c-2.6-2.1-2.5-2.8,1.6-13.1c2.3-5.9,2.6-5.3-4.6-9.1c-15.4-8.1-25.9-16-25.9-19.4
	c0-1.8,3.3-7.5,10.4-17.7c1.2-1.8,2.8-4.6,4.4-7.8c8.2-16.7,7.2-15.5,11.3-14.1c4.1,1.3,3.9,1.4,6.8-3.9c2.2-4,2.2-4,1.8-6.9
	c-0.4-3.2,4.8-9.4,7.6-9c3.5,0.6,2.8,0.9,7.9-3.6c5.1-4.5,5.5-5.9,3.5-12c-1.3-4.1-2.2-4.7-5.8-4.1c-3.8,0.7-5.8-0.2-6.9-3.1
	c-0.3-0.8-0.8-1.8-1.2-2.3c-0.8-1-0.9-1.4-1.1-4.2c-0.2-2-0.3-2.4-1-3.3c-0.9-1.2-0.9-1.8-0.2-3.2c0.4-0.8,0.5-1.3,0.4-2.4
	c-0.2-3.4-0.1-5.2,0.4-6.2c0.6-1.2,0.7-2.2,0.1-3.8C2261,568,2272.6,561.2,2286,562.7 M2293.6,596c-1.8,2.1-1.2,6,1.3,8.4
	c1.5,1.4,1.8,0.4,1.7-5.6C2296.5,593.4,2296.2,593.1,2293.6,596 M2262.6,640.1c-1.2,0.9-2.6,5.9-1.9,6.7c1,1.2,3.3,1.8,3.9,1.1
	c0.9-0.9,0.2-7.3-0.9-7.9C2263.3,639.6,2263.2,639.6,2262.6,640.1"/>
<path class="st15" d="M2378.5,560.7c8.5,0.9,15.5,11,13.6,19.3c-1.1,4.6-0.7,6.7,1.9,9.6c3.2,3.6,4.3,7.5,4.3,15.3
	c0,6.3,0,6.5-1.7,11.5c-0.6,1.7-0.6,2.4-0.8,8c-0.1,3.4-0.3,6.3-0.4,6.5c-0.3,0.5-0.2,4.7,0.2,7.6c0.7,4.7,0.6,16.1-0.1,18.3
	c-1.1,3.4-1,3.5,5,5.4c5.7,1.8,6,2.1,5.9,3.9c-0.1,1.6-1.9,6.2-3.9,10.6c-1.8,3.9-1.9,4.3-0.3,7.3c1.2,2.3,2.2,5,5.9,15.9
	c4,11.7,6,15.7,12.5,25.3c1.5,2.2,1,3.2-2.7,5.6c-4.8,3.1-14.8,6.3-21.6,7c-9.1,0.9-8.7,0.6-12,9.5c-2.9,7.7-3.5,10.3-3.2,13.4
	c0.4,4.3,1,5,7.4,7.9c9.4,4.3,9.8,4.7,21.7,16.5c12.3,12.2,12.9,12.5,20,12.6c5.9,0.1,7.4,1,10.2,6.6c0.9,1.8,2.2,3.9,3.1,5
	c2.8,3.4,1.7,5.1-2,3.2c-4.8-2.5-6.1-1.1-6.1,6.4c0,5.9-0.2,6.3-3.2,10.5c-4.5,6.1-7.6,8.5-9.2,6.9c-1.1-1.1-0.8-2.9,1-6.4
	c1.1-2.1,1.5-3.3,1.5-4c0-1.7-3.8-12.6-5-14.3c-3.7-5.4-8.6-8.8-24.6-17.5c-1.7-0.9-4.3-2.4-5.9-3.3c-4.7-2.8-10.5-6.2-12.8-7.6
	c-3.7-2.3-8.7-4.9-9.3-4.9c-1,0-1.1,0.4-0.9,3.5c0.2,3.3-0.2,8.3-0.9,12.9c-1.6,10-0.8,21.4,1.6,24.8c3,4.2,3.3,7.4,1.1,13.2
	c-0.5,1.4-1.1,3.4-1.4,4.4c-0.6,2.9-2,4-3.3,2.6c-0.5-0.5-0.6-0.9-1-3.8c-0.5-3.9-3.2-3.7-8.9,0.7c-4.5,3.5-8.7,4.2-18,3
	c-5.4-0.7-4.9-3.4,1-5.2c4.7-1.4,4.5-1.3,8.9-5.7c4.4-4.4,5.1-5.3,6.2-9c0.9-2.9,1-10.7,0.2-14.1c-0.3-1.1-0.6-2.9-0.8-3.9
	c-0.1-1-0.4-2.2-0.5-2.8c-0.1-0.5-0.4-1.9-0.6-3c-0.2-1.2-0.5-3-0.7-4.2c-1.1-5.7-1.7-8.6-2.1-10.4c-0.2-1.1-0.5-2.7-0.6-3.5
	s-0.3-2.1-0.5-2.9s-0.4-2.4-0.6-3.5c-0.1-1.1-0.4-2.6-0.6-3.3c-1.9-6.6-2.4-15.7-1.1-22c0.3-1.4,0.6-3,0.7-3.6
	c0.2-1.5,1.8-8.6,2.8-12.6c1.2-4.5,1-5-1.7-7.2c-2.6-2.1-2.5-2.8,1.6-13.1c2.3-5.9,2.6-5.3-4.6-9.1c-15.5-8.1-26.1-16-26.1-19.4
	c0-1.8,3.4-7.5,10.5-17.7c1.3-1.8,2.8-4.6,4.4-7.8c8.2-16.7,7.2-15.5,11.4-14.1c4.1,1.3,4,1.4,6.8-3.9c2.2-4,2.2-4,1.8-6.9
	c-0.4-3.2,4.9-9.4,7.7-9c3.5,0.6,2.8,0.9,8-3.6c5.1-4.5,5.5-5.9,3.5-12c-1.3-4.1-2.2-4.7-5.8-4.1c-3.9,0.7-5.9-0.2-7-3.1
	c-0.3-0.8-0.9-1.8-1.2-2.3c-0.8-1-0.9-1.4-1.1-4.2c-0.2-2-0.3-2.4-1-3.3c-0.9-1.2-1-1.8-0.2-3.2c0.4-0.8,0.5-1.3,0.4-2.4
	c-0.2-3.4-0.1-5.2,0.4-6.2c0.6-1.2,0.7-2.2,0.1-3.8C2353.2,566,2364.9,559.2,2378.5,560.7 M2386.2,594c-1.8,2.1-1.2,6,1.3,8.4
	c1.5,1.4,1.8,0.4,1.7-5.6C2389.1,591.4,2388.8,591.1,2386.2,594 M2354.9,638.1c-1.2,0.9-2.6,5.9-1.9,6.7c1.1,1.2,3.3,1.8,4,1.1
	c0.9-0.9,0.2-7.3-0.9-7.9C2355.6,637.6,2355.5,637.6,2354.9,638.1"/>
<path class="st16" d="M2201,518.5v-39l19,39H2201z"/>
<path class="st17" d="M2201,518.5v39l19-39H2201z"/>
<path class="st18" d="M2201,518.5v-39l-20,39H2201z"/>
<path class="st19" d="M2201,518.5v39l-20-39H2201z"/>
<path class="st20" d="M2207,563.7c8.4,0.9,15.4,11,13.5,19.4c-1.1,4.6-0.7,6.7,1.9,9.7c3.2,3.6,4.3,7.6,4.3,15.4
	c0,6.3,0,6.5-1.7,11.6c-0.6,1.7-0.6,2.4-0.8,8.1c-0.1,3.4-0.3,6.4-0.4,6.5c-0.3,0.5-0.2,4.7,0.2,7.6c0.7,4.8,0.6,16.2-0.1,18.4
	c-1.1,3.4-1,3.5,5,5.4c5.7,1.8,6,2.1,5.8,3.9c-0.1,1.6-1.8,6.2-3.9,10.6c-1.8,3.9-1.9,4.3-0.3,7.3c1.2,2.3,2.2,5,5.8,15.9
	c3.9,11.7,5.9,15.8,12.4,25.4c1.5,2.2,1,3.2-2.7,5.6c-4.8,3.1-14.7,6.3-21.5,7c-9,0.9-8.6,0.6-11.9,9.5c-2.9,7.7-3.5,10.4-3.2,13.5
	c0.4,4.4,1,5,7.3,7.9c9.3,4.3,9.7,4.7,21.6,16.5c12.2,12.2,12.8,12.6,19.9,12.7c5.9,0.1,7.4,1,10.1,6.6c0.9,1.8,2.2,3.9,3,5
	c2.7,3.4,1.7,5.1-2,3.2c-4.8-2.5-6.1-1.1-6.1,6.4c0,5.9-0.2,6.3-3.2,10.5c-4.5,6.2-7.5,8.5-9.1,6.9c-1.1-1.1-0.8-2.9,1-6.4
	c1.1-2.1,1.5-3.3,1.5-4c0-1.8-3.7-12.6-4.9-14.4c-3.7-5.4-8.5-8.9-24.4-17.5c-1.7-0.9-4.3-2.4-5.8-3.3c-4.7-2.8-10.4-6.2-12.7-7.6
	c-3.7-2.3-8.6-4.9-9.3-4.9c-0.9,0-1.1,0.5-0.9,3.5c0.2,3.3-0.2,8.3-0.9,13c-1.6,10-0.8,21.5,1.6,24.9c3,4.2,3.3,7.4,1.1,13.2
	c-0.5,1.4-1.1,3.4-1.4,4.4c-0.6,2.9-2,4-3.3,2.6c-0.5-0.5-0.6-0.9-1-3.8c-0.5-4-3.2-3.7-8.8,0.7c-4.5,3.5-8.6,4.2-17.9,3
	c-5.4-0.7-4.8-3.4,1-5.2c4.7-1.4,4.4-1.3,8.8-5.7c4.4-4.4,5-5.4,6.2-9c0.9-2.9,1-10.8,0.2-14.1c-0.3-1.1-0.6-2.9-0.8-3.9
	c-0.1-1-0.4-2.2-0.5-2.8c-0.1-0.5-0.4-1.9-0.6-3c-0.2-1.2-0.5-3-0.7-4.2c-1.1-5.8-1.7-8.6-2.1-10.5c-0.2-1.1-0.5-2.7-0.6-3.5
	s-0.3-2.1-0.5-2.9s-0.4-2.4-0.6-3.5c-0.1-1.1-0.4-2.6-0.6-3.3c-1.9-6.6-2.4-15.7-1.1-22.1c0.3-1.4,0.6-3.1,0.6-3.7
	c0.2-1.5,1.8-8.6,2.8-12.7c1.1-4.5,1-5-1.7-7.2c-2.6-2.1-2.5-2.8,1.6-13.2c2.3-5.9,2.6-5.3-4.6-9.1c-15.4-8.2-25.9-16.1-25.9-19.5
	c0-1.8,3.3-7.5,10.4-17.8c1.2-1.8,2.8-4.6,4.4-7.8c8.2-16.8,7.2-15.5,11.3-14.2s3.9,1.4,6.8-3.9c2.2-4,2.2-4,1.8-7
	c-0.4-3.2,4.8-9.5,7.6-9c3.5,0.6,2.8,0.9,7.9-3.7c5.1-4.5,5.5-5.9,3.5-12.1c-1.3-4.1-2.2-4.7-5.8-4.1c-3.8,0.7-5.8-0.2-6.9-3.1
	c-0.3-0.8-0.8-1.8-1.2-2.3c-0.8-1.1-0.9-1.4-1.1-4.2c-0.2-2-0.3-2.4-1-3.4c-0.9-1.2-0.9-1.8-0.2-3.2c0.4-0.8,0.5-1.3,0.4-2.4
	c-0.2-3.4-0.1-5.2,0.4-6.3c0.6-1.2,0.7-2.3,0.1-3.8C2182,569,2193.6,562.2,2207,563.7 M2214.6,597.1c-1.8,2.1-1.2,6,1.3,8.4
	c1.5,1.4,1.8,0.4,1.7-5.6C2217.5,594.5,2217.2,594.2,2214.6,597.1 M2183.6,641.3c-1.2,0.9-2.6,5.9-1.9,6.7c1,1.2,3.3,1.8,3.9,1.1
	c0.9-0.9,0.2-7.3-0.9-8C2184.3,640.9,2184.2,640.9,2183.6,641.3"/>
<path class="st3" d="M1322,380l26-51.5l26,51.5l-26,51.5L1322,380z"/>
<path class="st21" d="M1348,379.5v-39l20,39H1348z"/>
<path class="st22" d="M1348,379.5v39l20-39H1348z"/>
<path class="st23" d="M1348,379.5v-39l-20,39H1348z"/>
<path class="st24" d="M1348,379.5v39l-20-39H1348z"/>
<path class="st25" d="M1345.1,425.7c-5.4,1-6.8,2.3-7.6,6.8c-0.8,4.6-1.1,5.2-3.5,5.4c-1.8,0.2-2.3,0.6-2.1,1.6
	c0.1,0.7,1.2,2.3,1.9,2.8c0.9,0.7,1.1,1.2,1,2.6c-0.1,1.6,0.1,4.6,0.7,6.6c0.6,2,2.6,3.8,2.8,5.6c0.2,2.9,0,3.6-1.6,4.9
	c-1.4,1.1-1.5,1.4-1.6,2.8c-1.8,1.3-6.2,3.2-9.5,5s-8.8,3-10.3,5.7c-0.2,0.4,0.2-2.1-1.2,1.9c-1.4,4.1-5.4,16.6-7.1,22.4
	c-1.7,5.8-2.4,8.4-3.1,12.4c-0.7,3.9-2.3,6.3-1.4,11.2c0.9,4.9,5.1,13.8,6.9,18.3c1.7,4.4,2.7,4.9,3.5,8.2c1.4,5.7,5.4,8,6.5,12.3
	s0,7.6-0.1,13.5c-0.1,6-0.6,4-0.4,22.3c0.1,8,0.5,16.7,0.8,25.6s0.8,18.2,1,27.9c0.2,9.7,1.1,23.7,0.2,30.6
	c-0.9,6.9-4.3,7.6-5.6,10.6c-1.3,3.1-2.1,4.3-2.1,7.8c0,5.2,13.1,0.9,17.4-0.3c4.3-1.2,6.9-3.7,8.6-6.9c1.7-3.3,1.5-7.8,1.7-12.6
	c0.2-4.8-0.6-7.2-0.2-16.2c0.4-9,1.6-28.2,2.4-37.7c0.8-9.5,1.3-13.2,2.2-19.2s2.3-16.9,3.3-16.8c1,0,2.3,13.5,2.9,17.1
	c0.9,7.8,2.5,18.3,2.3,29.6c-0.2,11.3-3,30.2-3.5,38.4c-0.5,8.1-0.3,6.4,0.4,10.5s2.2,11.1,3.9,14.2c1.8,3,1.3,4,6.6,4
	c4.4,0,6.1-0.5,7.2-2.1l0.4-7.5c-0.5-2.3-1.3-3.3-1.4-6.9c-0.1-3.6,0-9.7,0.6-14.8c0.5-5.2,2-11.6,2.7-16c1-7.9,2.6-22.6,3.4-31.4
	c0.8-8.8,1.2-12.2,1.4-21.4c0.2-9.2,0-24.5-0.3-33.7s-1.3-16.1-1.5-21.3c-0.2-5.2,0.1-7.3,0.3-9.9s0.4-4.7,0.7-5.5
	c0.3-0.7,0.2-0.3,2.6-1.3c2.5-1,9.8-1.4,12.2-4.5s2.5-9.7,2.5-14.1s-1.2-7.4-2.4-12.4s-3.2-13.2-4.9-17.5s-3.4-6.8-5.1-8.5
	c-1.4-1.3-8.2-3.8-11-5.1c-2.8-1.3-4.2-1.4-5.7-2.7c-1.5-1.3-2.6-3.3-3.4-5c-0.8-1.7-1.7-3.5-1.3-5.3c0.4-1.7,2.8-3.4,3.5-5.2
	c0.7-1.8,0.7-4.3,0.7-5.6c0-1.1,0.1-1.3,1.2-2.5c1.9-2,1.9-3.7,0-4.2c-1.8-0.5-1.7-0.4-2.5-5.5c-0.8-5.4-0.9-5.8-1.8-6.6
	C1357.5,426.4,1348.9,425,1345.1,425.7 M1323.3,506c0.1,5,1.1,18.1,0.7,24s-2,12.6-3.5,11.8s-4.9-11.4-5.3-16.3
	c-0.4-4.9-0.9-6.7,2.7-13.1L1323.3,506 M1376.4,510.6c1.3,1.4,2.6,6.3,2,7.3c-0.3,0.4-2.8,2.1-3.4,2.4c-1.8,0.7-2-1.2-0.7-6.2
	C1375.4,509.9,1375.5,509.7,1376.4,510.6"/>
<path class="st26" d="M928.7,895.2c-0.2,11.3-9.2,20.4-20,20.2L400,906.5c-10.9-0.2-19.5-9.5-19.3-20.9"/>
<path class="st27" d="M472.1,898.5l365.2,6.4l-0.4,21.8l-365.2-6.4L472.1,898.5z"/>
<g class="st28">
	<path class="st29" d="M485.2,909.2c0-7.6,2-13.6,6.1-17.9s9.4-6.5,15.8-6.5c4.2,0,8,1,11.4,3s6,4.8,7.8,8.5
		c1.8,3.6,2.7,7.7,2.7,12.3c0,4.6-0.9,8.8-2.8,12.5s-4.5,6.4-8,8.3c-3.4,1.9-7.1,2.8-11.1,2.8c-4.3,0-8.2-1-11.6-3.1s-6-4.9-7.7-8.5
		C486,917,485.2,913.2,485.2,909.2z M491.4,909.3c0,5.5,1.5,9.9,4.5,13c3,3.2,6.7,4.8,11.2,4.8c4.6,0,8.3-1.6,11.3-4.8
		c2.9-3.2,4.4-7.8,4.4-13.7c0-3.7-0.6-7-1.9-9.8s-3.1-4.9-5.5-6.5c-2.4-1.5-5.2-2.3-8.2-2.3c-4.3,0-8,1.5-11.1,4.4
		C493,897.5,491.4,902.4,491.4,909.3z"/>
	<path class="st29" d="M541.2,931.5H536v-45.8h5.6V902c2.4-3,5.4-4.5,9.1-4.5c2,0,4,0.4,5.8,1.2c1.8,0.8,3.3,2,4.5,3.5
		s2.1,3.3,2.8,5.4c0.7,2.1,1,4.4,1,6.8c0,5.7-1.4,10.1-4.2,13.2c-2.8,3.1-6.2,4.7-10.1,4.7s-7-1.6-9.2-4.9v4.1H541.2z M541.2,914.7
		c0,4,0.5,6.9,1.6,8.6c1.8,2.9,4.2,4.3,7.2,4.3c2.5,0,4.6-1.1,6.4-3.2s2.7-5.3,2.7-9.5c0-4.3-0.9-7.5-2.6-9.6s-3.8-3.1-6.2-3.1
		c-2.5,0-4.6,1.1-6.4,3.2C542.1,907.6,541.2,910.6,541.2,914.7z"/>
</g>
<g class="st28">
	<path class="st29" d="M569.4,921.6l5.6-0.9c0.3,2.2,1.2,3.9,2.6,5.1s3.4,1.8,6,1.8s4.5-0.5,5.8-1.6c1.2-1.1,1.9-2.3,1.9-3.7
		c0-1.3-0.6-2.3-1.7-3c-0.8-0.5-2.7-1.1-5.8-1.9c-4.1-1-7-1.9-8.6-2.7c-1.6-0.8-2.8-1.8-3.6-3.2c-0.8-1.3-1.2-2.8-1.2-4.5
		c0-1.5,0.3-2.8,1-4.1c0.7-1.3,1.6-2.3,2.8-3.1c0.9-0.6,2.1-1.2,3.6-1.6s3.1-0.7,4.9-0.7c2.6,0,4.9,0.4,6.9,1.1s3.4,1.8,4.4,3
		s1.6,3,1.9,5.1l-5.5,0.8c-0.2-1.7-1-3-2.2-4s-2.9-1.4-5.1-1.4c-2.6,0-4.4,0.4-5.5,1.3s-1.7,1.9-1.7,3c0,0.7,0.2,1.4,0.7,2
		s1.2,1.1,2.2,1.5c0.6,0.2,2.2,0.7,5,1.4c4,1.1,6.8,1.9,8.3,2.6c1.6,0.7,2.8,1.7,3.7,3c0.9,1.3,1.3,2.9,1.3,4.8s-0.5,3.6-1.6,5.3
		s-2.7,2.9-4.7,3.8s-4.4,1.4-7,1.4c-4.3,0-7.6-0.9-9.9-2.7C571.5,927.8,570,925.1,569.4,921.6z"/>
</g>
<g class="st28">
	<path class="st29" d="M626.4,920.8l5.8,0.7c-0.9,3.4-2.6,6-5.1,7.9s-5.6,2.8-9.5,2.8c-4.9,0-8.7-1.5-11.5-4.5s-4.3-7.2-4.3-12.6
		c0-5.6,1.4-9.9,4.3-13s6.6-4.6,11.2-4.6c4.4,0,8.1,1.5,10.9,4.5s4.2,7.3,4.2,12.8c0,0.3,0,0.8,0,1.5h-24.8c0.2,3.6,1.2,6.4,3.1,8.4
		s4.2,2.9,6.9,2.9c2.1,0,3.8-0.5,5.3-1.6C624.4,924.9,625.6,923.2,626.4,920.8z M608,911.7h18.5c-0.2-2.8-1-4.9-2.1-6.3
		c-1.8-2.2-4.1-3.2-7-3.2c-2.6,0-4.8,0.9-6.5,2.6C609.1,906.5,608.2,908.8,608,911.7z"/>
	<path class="st29" d="M639.3,931.5v-33.2h5.1v5c1.3-2.4,2.5-3.9,3.6-4.7s2.3-1.1,3.6-1.1c1.9,0,3.8,0.6,5.8,1.8l-1.9,5.2
		c-1.4-0.8-2.8-1.2-4.1-1.2c-1.2,0-2.3,0.4-3.3,1.1s-1.7,1.8-2.1,3.1c-0.6,2-0.9,4.2-0.9,6.6v17.4L639.3,931.5L639.3,931.5z"/>
	<path class="st29" d="M669.9,931.5l-12.6-33.2h5.9l7.1,19.9c0.8,2.1,1.5,4.4,2.1,6.7c0.5-1.8,1.2-3.9,2.1-6.3l7.4-20.2h5.8
		l-12.6,33.2L669.9,931.5L669.9,931.5z"/>
	<path class="st29" d="M714.3,927.4c-2.1,1.8-4.1,3-6,3.8s-4,1.1-6.2,1.1c-3.6,0-6.4-0.9-8.4-2.7s-2.9-4.1-2.9-6.8
		c0-1.6,0.4-3.1,1.1-4.5s1.7-2.4,2.9-3.2s2.5-1.4,4-1.8c1.1-0.3,2.8-0.6,5-0.8c4.5-0.5,7.9-1.2,10-1.9c0-0.8,0-1.3,0-1.5
		c0-2.3-0.5-3.9-1.6-4.8c-1.4-1.3-3.6-1.9-6.4-1.9c-2.6,0-4.6,0.5-5.9,1.4s-2.2,2.6-2.8,4.9l-5.5-0.8c0.5-2.4,1.3-4.3,2.5-5.7
		c1.1-1.4,2.8-2.6,5-3.3s4.7-1.2,7.5-1.2s5.1,0.3,6.9,1s3.1,1.5,3.9,2.5s1.4,2.3,1.8,3.8c0.2,1,0.3,2.7,0.3,5.2v7.5
		c0,5.2,0.1,8.5,0.4,9.9c0.2,1.4,0.7,2.7,1.4,4h-5.9C714.8,930.4,714.5,929,714.3,927.4z M713.8,914.9c-2,0.8-5.1,1.5-9.2,2.1
		c-2.3,0.3-3.9,0.7-4.9,1.1s-1.7,1-2.2,1.8s-0.8,1.7-0.8,2.7c0,1.5,0.6,2.8,1.7,3.8s2.8,1.5,5,1.5s4.1-0.5,5.8-1.4
		c1.7-0.9,2.9-2.2,3.7-3.9c0.6-1.3,0.9-3.1,0.9-5.6V914.9z"/>
	<path class="st29" d="M740.5,926.5l0.8,5c-1.6,0.3-3,0.5-4.2,0.5c-2,0-3.6-0.3-4.8-1s-1.9-1.5-2.4-2.5c-0.5-1.1-0.7-3.3-0.7-6.6
		v-19.1h-4.1v-4.4h4.1v-8.2l5.6-3.4v11.6h5.7v4.4h-5.7v19.4c0,1.6,0.1,2.6,0.3,3.1c0.2,0.5,0.5,0.8,1,1.1c0.4,0.3,1.1,0.4,1.9,0.4
		C738.7,926.7,739.5,926.6,740.5,926.5z"/>
	<path class="st29" d="M746,892.2v-6.5h5.6v6.5H746z M746,931.5v-33.2h5.6v33.2H746z"/>
	<path class="st29" d="M758.1,914.9c0-6.1,1.7-10.7,5.1-13.7c2.9-2.5,6.3-3.7,10.4-3.7c4.6,0,8.3,1.5,11.2,4.5
		c2.9,3,4.3,7.1,4.3,12.4c0,4.3-0.6,7.6-1.9,10.1c-1.3,2.4-3.1,4.3-5.6,5.7s-5.1,2-8,2c-4.6,0-8.4-1.5-11.3-4.5
		C759.6,924.8,758.1,920.5,758.1,914.9z M763.9,914.9c0,4.2,0.9,7.4,2.8,9.5s4.2,3.2,7,3.2s5.1-1.1,7-3.2s2.8-5.4,2.8-9.7
		c0-4.1-0.9-7.2-2.8-9.3c-1.9-2.1-4.2-3.2-7-3.2s-5.1,1.1-7,3.2S763.9,910.7,763.9,914.9z"/>
	<path class="st29" d="M795.8,931.5v-33.2h5.1v4.7c2.4-3.6,6-5.5,10.6-5.5c2,0,3.8,0.4,5.5,1.1s2.9,1.7,3.8,2.8
		c0.8,1.2,1.4,2.6,1.8,4.2c0.2,1,0.3,2.9,0.3,5.5v20.4h-5.6v-20.2c0-2.3-0.2-4-0.7-5.1c-0.4-1.1-1.2-2-2.3-2.7c-1.1-0.7-2.4-1-3.9-1
		c-2.4,0-4.5,0.8-6.2,2.3s-2.6,4.4-2.6,8.7v18.1h-5.8V931.5z"/>
</g>
<path class="st30" d="M406,351.4c-7.2,2.8-10.2,10.2-7.6,18.7c0.6,2-0.9,4-3.3,4.4c-2.7,0.4-4.1,2.4-3.6,5.1
	c0.9,4.9,7.5,5.1,9.2,0.2c0.5-1.5,1.9-1.3,1.9,0.3c0,0.4,0.4,1.5,0.9,2.4c0,1.2,0,2.4,0,3.6c-0.9,1.9-4.7,5-6.2,7s-2,2.5-3.1,5.2
	s-2.5,7.9-3.5,11.2c-1,3.3-1.6,5.6-2.5,8.5c-0.9,3-2.6,8.8-2.8,9.2c-0.2,0.3-0.9,0.4-4.3,0.3l-4.2-0.1l-0.8,0.7
	c-0.5,0.4-0.5,0.2-1.1,1.7c-0.5,1.6-1.7,6-2.1,7.6c-0.5,1.7-0.2,0-0.6,2.4s-1.4,9.2-1.8,12c-0.4,2.9-0.1,1.3-0.5,5.1
	c-0.4,3.8-1.7,14.3-2,17.5v1.9l1.5,1.4c1.3,1.3,3.5,2.8,6.2,4.2c1.3,0.7,7.1,3,9.1,3.6c1.1,0.3,1.2,1.5,0.1,3.3
	c-2.6,4.3-5,10.7-5,13.3c0,0.4-0.2,1.4-0.4,2c-0.6,1.7-0.3,2.2,1.5,3.7c2.3,1.8,4.7,3.1,6.5,3.4c2.2,0.4,2.3,0.6,2.3,3.3
	c0,4.7-1,9.3-2.4,11.6c-1.7,2.8-2.2,3.4-3.7,4.2c-7.7,4.9-12,10.1-17.8,21.4c-4.1,7.9-10,16.3-12.4,17.6c-1.3,0.7-3.8,3.4-5.2,5.2
	c-1.4,1.8-4.1,3.4-3.3,5.6c0.8,2.2,0.2,2.8,8,7.3c1.7,1,4.2,2.5,5.5,3.3c5.3,3.2,8.9,4.3,15.1,4.6c3.8,0.2,4.1,0,3.8-2.2
	c-0.2-1.8-0.5-2.3-1.3-2.4c-2.1-0.4-2.4-0.5-4-2.4c-1.6-1.8-4.5-6.5-5.6-8.6c-0.7-1.1-1.7-1.7-1.3-3.7c0.5-2.1,1.8-5.1,4-8.6
	c0.4-0.6,6.6-7.1,13.8-14.3l13-13.1l2.3-1.2c3.6-1.8,7.1-4.2,7.6-5.2c0.9-1.7,2-4.9,3.2-9.3c2.1-7.4,2.6-8.9,3.2-10.4
	c1-2.4,0.7-2.7,6.3,5.9c1.3,1.9,3.7,7,4.6,9.6l0.7,2c0.1,3.3,0.1,6.7,0.2,10c0.2,9.4,0.2,8.9,0.9,12.8s2.4,7.3,3.3,10.5
	c0.9,3.1,1.6,5.1,2,8.3c0.4,3.1,0.2,7,0.2,10.6s-0.5,10.3-0.1,10.9s13.2,0.6,25,0c9.5-0.5,11.3-1.1,10.1-3.3
	c-0.9-1.6-1.1-1.7-2.8-1.7c-1.7,0-1.9-0.5-3.5-1.3c-1.6-0.7-4.1-2-6-3s-3.7-2.6-5.4-2.9c-5.1-0.8-6.5-5.4-6.8-21.7
	c-0.1-5.1-0.3-11-0.5-13.3c-0.3-4.4-1-9.4-1.1-13.2c-0.1-3.8-0.2-3.5,0.5-9.4c0.4-2.9-0.3-6.2-2.2-11.2c-1-2.6-2.2-7.4-2.3-9.3
	l-0.1-1.6l1.5-1.3c1-1,1.4-1.5,1.3-1.8c-1.3-4-3.7-8.8-6.5-13.1c-0.7-1-1.3-2.4-1.8-4c-0.4-1.4-1.4-3.8-2.2-5.4
	c-1.6-3.1-1.6-3.6-0.7-6.8c0.2-0.7,0.5-2.2,0.6-3.3c0.6-4.5,1-4.8,3-2.3c0.8,1,2.3,2.7,3.2,3.8c1.9,2,6.3,7.3,7,8.3
	c0.2,0.3,0.5,1.2,0.6,1.9c0.3,2.3,1.2,4.7,2.5,7c0.7,1.3,1.4,2.7,1.5,3.2c0.6,4,2.5,5.1,6.7,3.9c5-1.4,4.8-6.3-0.6-13.7
	c-1.1-1.6-2.8-4-3.7-5.5c-0.9-1.4-1.9-2.9-2.2-3.2c-0.9-1-3-4-4.4-6.5l-2-3.4c-4.8-8.2-5.4-9.3-7.7-12.2c-1.2-1.6-1.5-3-0.8-4.5
	c0.8-1.9-1.2-1-1.7-3.2s-1-6-1.6-9.9c2-4.1,1.2-9.3-2.1-13.2c-1.4-1.7-3.6-5-4.6-7.1c-5.4-11.2-5.9-14.7-2.8-20
	c1.9-3.2,2-3.3,4.6-3.3c2.5,0,3.4-0.6,3.9-2.4c0.6-2.3,0.8-2.7,1.4-3.5c0.5-0.5,0.7-1.2,0.9-2.6c0.1-1,0.5-2.1,0.7-2.5
	c0.7-1,0.6-1.7-0.4-3.8l-0.9-1.8c0-1.3,0-2.6,0-3.8c0-3.3,0-4-0.4-4.7c-0.3-0.6-0.5-1.7-0.6-3.1c-0.2-2.2-1.5-4.5-2.7-4.5
	c-0.2,0-0.7-0.2-1.2-0.5s-1.1-0.5-1.4-0.5c-0.2,0-1.4-0.4-2.5-1C414.9,350.4,409.9,349.9,406,351.4 M392.3,424.7
	c0.7,2.5,0.5,3.6-0.5,3.6c-0.9,0-1.3-1-1-2.7c0.1-0.8,0.2-2,0.2-2.5C391.1,420.9,391.5,421.4,392.3,424.7"/>
<path class="st31" d="M467,364.4c-7.2,2.8-10.2,10.2-7.6,18.8c0.6,2-0.9,4-3.3,4.4c-2.7,0.4-4.1,2.4-3.6,5.1c0.9,5,7.5,5.2,9.2,0.3
	c0.5-1.5,1.9-1.3,1.9,0.3c0,0.4,0.4,1.5,0.9,2.4c0,1.2,0,2.4,0,3.6c-0.9,2-4.7,5-6.2,7.1c-1.5,2-2,2.5-3.1,5.2
	c-1.1,2.8-2.5,7.9-3.5,11.2c-1,3.3-1.6,5.6-2.5,8.6s-2.6,8.8-2.8,9.3c-0.2,0.3-0.9,0.4-4.4,0.3l-4.2-0.1l-0.8,0.7
	c-0.5,0.4-0.5,0.2-1.1,1.7c-0.5,1.6-1.7,6-2.1,7.7c-0.5,1.7-0.2,0-0.6,2.4s-1.4,9.2-1.8,12.1s-0.1,1.3-0.5,5.1
	c-0.4,3.8-1.7,14.3-2,17.6v1.9l1.5,1.4c1.3,1.3,3.5,2.8,6.2,4.2c1.3,0.7,7.1,3,9.1,3.6c1.1,0.3,1.2,1.5,0.1,3.4
	c-2.6,4.3-5,10.8-5,13.3c0,0.4-0.2,1.4-0.4,2c-0.6,1.7-0.3,2.2,1.5,3.7c2.3,1.8,4.7,3.1,6.5,3.4c2.2,0.4,2.3,0.6,2.3,3.3
	c0,4.7-1,9.4-2.4,11.6c-1.7,2.8-2.2,3.4-3.7,4.3c-7.7,5-12,10.1-17.8,21.5c-4.1,7.9-10,16.4-12.4,17.6c-1.3,0.7-3.8,3.4-5.2,5.2
	c-1.4,1.8-4.1,3.5-3.3,5.6c0.8,2.2,0.2,2.8,8,7.3c1.7,1,4.2,2.5,5.5,3.3c5.3,3.2,8.9,4.3,15.1,4.6c3.8,0.2,4.1,0,3.8-2.2
	c-0.2-1.8-0.5-2.3-1.3-2.4c-2.1-0.4-2.4-0.6-4-2.4s-4.5-6.5-5.6-8.6c-0.7-1.1-1.7-1.7-1.3-3.8c0.5-2.1,1.8-5.1,4-8.6
	c0.4-0.6,6.6-7.1,13.8-14.4l13-13.2l2.3-1.2c3.6-1.8,7.1-4.2,7.6-5.2c0.9-1.7,2-4.9,3.2-9.4c2.1-7.4,2.6-9,3.2-10.4
	c1-2.4,0.7-2.7,6.3,6c1.3,1.9,3.7,7,4.6,9.7l0.7,2c0.1,3.3,0.1,6.7,0.2,10c0.2,9.4,0.2,8.9,0.9,12.8s2.4,7.4,3.3,10.5s1.6,5.2,2,8.3
	c0.4,3.2,0.2,7.1,0.2,10.7s-0.5,10.4-0.1,11s13.2,0.6,25,0c9.5-0.5,11.3-1.1,10.1-3.3c-0.9-1.6-1.1-1.7-2.8-1.7
	c-1.7,0-1.9-0.6-3.5-1.3c-1.6-0.7-4.1-2-6-3s-3.7-2.7-5.4-2.9c-5.1-0.8-6.5-5.4-6.8-21.8c-0.1-5.1-0.3-11.1-0.5-13.3
	c-0.3-4.4-1-9.4-1.1-13.2c-0.1-3.8-0.2-3.5,0.5-9.4c0.4-2.9-0.3-6.3-2.2-11.3c-1-2.6-2.2-7.4-2.3-9.4l-0.1-1.6l1.5-1.3
	c1-1,1.4-1.5,1.3-1.8c-1.3-4.1-3.7-8.9-6.5-13.2c-0.7-1-1.3-2.4-1.8-4.1c-0.4-1.4-1.4-3.8-2.2-5.4c-1.6-3.1-1.6-3.6-0.7-6.8
	c0.2-0.7,0.5-2.2,0.6-3.3c0.6-4.5,1-4.9,3-2.4c0.8,1,2.3,2.7,3.2,3.8c1.9,2,6.3,7.3,7,8.4c0.2,0.3,0.5,1.2,0.6,1.9
	c0.3,2.3,1.2,4.7,2.5,7.1c0.7,1.3,1.4,2.7,1.5,3.2c0.6,4,2.5,5.1,6.7,3.9c5-1.4,4.8-6.3-0.6-13.8c-1.1-1.6-2.8-4.1-3.7-5.5
	c-0.9-1.4-1.9-2.9-2.2-3.2c-0.9-1-3-4-4.4-6.5l-2-3.5c-4.8-8.2-5.4-9.3-7.7-12.3c-1.2-1.6-1.5-3-0.8-4.5c0.8-1.9-1.2-1-1.7-3.2
	s-1-6.1-1.6-9.9c2-4.1,1.2-9.3-2.1-13.2c-1.4-1.7-3.6-5-4.6-7.1c-5.4-11.3-5.9-14.8-2.8-20.1c1.9-3.2,2-3.3,4.6-3.3
	c2.5,0,3.4-0.6,3.9-2.4c0.6-2.3,0.8-2.8,1.4-3.5c0.5-0.5,0.7-1.3,0.9-2.6c0.1-1,0.5-2.1,0.7-2.5c0.7-1,0.6-1.7-0.4-3.8l-0.9-1.8
	c0-1.3,0-2.6,0-3.8c0-3.3,0-4-0.4-4.7c-0.3-0.6-0.5-1.7-0.6-3.1c-0.2-2.2-1.5-4.5-2.7-4.5c-0.2,0-0.7-0.2-1.2-0.5s-1.1-0.5-1.4-0.5
	c-0.2,0-1.4-0.5-2.5-1C475.9,363.4,470.8,362.9,467,364.4 M453.3,438c0.7,2.6,0.5,3.7-0.5,3.7c-0.9,0-1.3-1-1-2.7
	c0.1-0.8,0.2-2,0.2-2.6C452.1,434.1,452.5,434.7,453.3,438"/>
<g class="st28">
	<path d="M267.7,51.5L255.5,5.7h6.2l7,30c0.8,3.1,1.4,6.3,1.9,9.4c1.2-4.9,1.9-7.7,2.1-8.5l8.7-30.9h7.3l6.6,23.2
		c1.6,5.8,2.8,11.2,3.6,16.2c0.6-2.9,1.3-6.2,2.3-10l7.2-29.4h6.1l-12.6,45.8h-5.8l-9.7-34.9c-0.8-2.9-1.3-4.7-1.4-5.4
		c-0.5,2.1-0.9,3.9-1.3,5.4L274,51.5H267.7z"/>
	<path d="M340.9,40.8l5.8,0.7c-0.9,3.4-2.6,6-5.1,7.9s-5.6,2.8-9.5,2.8c-4.9,0-8.7-1.5-11.5-4.5s-4.3-7.2-4.3-12.6
		c0-5.6,1.4-9.9,4.3-13s6.6-4.6,11.2-4.6c4.4,0,8.1,1.5,10.9,4.5s4.2,7.3,4.2,12.8c0,0.3,0,0.8,0,1.5h-24.8c0.2,3.6,1.2,6.4,3.1,8.4
		c1.9,1.9,4.2,2.9,6.9,2.9c2.1,0,3.8-0.5,5.3-1.6C338.9,44.9,340.1,43.2,340.9,40.8z M322.4,31.7h18.5c-0.2-2.8-1-4.9-2.1-6.3
		c-1.8-2.2-4.1-3.2-7-3.2c-2.6,0-4.8,0.9-6.5,2.6C323.6,26.5,322.6,28.8,322.4,31.7z"/>
	<path d="M353.8,12.2V5.7h5.6v6.5H353.8z M353.8,51.5V18.3h5.6v33.2H353.8z"/>
	<path d="M367,54.3l5.5,0.8c0.2,1.7,0.9,2.9,1.9,3.7c1.4,1,3.3,1.6,5.7,1.6c2.6,0,4.6-0.5,6-1.6c1.4-1,2.4-2.5,2.9-4.4
		c0.3-1.1,0.4-3.6,0.4-7.2c-2.5,2.9-5.5,4.3-9.2,4.3c-4.6,0-8.1-1.6-10.6-4.9c-2.5-3.3-3.8-7.2-3.8-11.8c0-3.2,0.6-6.1,1.7-8.8
		s2.8-4.7,5-6.2s4.7-2.2,7.7-2.2c3.9,0,7.1,1.6,9.7,4.8v-4h5.2v28.7c0,5.2-0.5,8.8-1.6,11s-2.7,3.9-5,5.1s-5.1,1.9-8.4,1.9
		c-4,0-7.2-0.9-9.6-2.7S366.9,57.9,367,54.3z M371.6,34.3c0,4.4,0.9,7.5,2.6,9.5c1.7,2,3.9,3,6.5,3s4.8-1,6.5-3
		c1.8-2,2.6-5.1,2.6-9.4c0-4.1-0.9-7.1-2.7-9.2c-1.8-2.1-4-3.1-6.5-3.1s-4.6,1-6.4,3S371.6,30.3,371.6,34.3z"/>
	<path d="M403.6,51.5V5.7h5.6v16.4c2.6-3,5.9-4.6,9.9-4.6c2.5,0,4.6,0.5,6.4,1.5s3.1,2.3,3.9,4s1.2,4.2,1.2,7.4v21H425v-21
		c0-2.8-0.6-4.9-1.8-6.1s-2.9-1.9-5.2-1.9c-1.7,0-3.2,0.4-4.7,1.3c-1.5,0.9-2.5,2-3.1,3.5s-0.9,3.5-0.9,6.1v18.2L403.6,51.5
		L403.6,51.5z"/>
	<path d="M451.5,46.5l0.8,5c-1.6,0.3-3,0.5-4.2,0.5c-2,0-3.6-0.3-4.8-1s-1.9-1.5-2.4-2.5c-0.5-1.1-0.7-3.3-0.7-6.6V22.8h-4.1v-4.4
		h4.1v-8.2l5.6-3.4v11.6h5.7v4.4h-5.7v19.4c0,1.6,0.1,2.6,0.3,3.1c0.2,0.5,0.5,0.8,1,1.1c0.4,0.3,1.1,0.4,1.9,0.4
		C449.6,46.7,450.5,46.6,451.5,46.5z"/>
	<path d="M479.7,40.8l5.8,0.7c-0.9,3.4-2.6,6-5.1,7.9s-5.6,2.8-9.5,2.8c-4.9,0-8.7-1.5-11.5-4.5s-4.3-7.2-4.3-12.6
		c0-5.6,1.4-9.9,4.3-13s6.6-4.6,11.2-4.6c4.4,0,8.1,1.5,10.9,4.5s4.2,7.3,4.2,12.8c0,0.3,0,0.8,0,1.5h-24.8c0.2,3.6,1.2,6.4,3.1,8.4
		c1.9,1.9,4.2,2.9,6.9,2.9c2.1,0,3.8-0.5,5.3-1.6C477.7,44.9,478.8,43.2,479.7,40.8z M461.2,31.7h18.5c-0.2-2.8-1-4.9-2.1-6.3
		c-1.8-2.2-4.1-3.2-7-3.2c-2.6,0-4.8,0.9-6.5,2.6C462.4,26.5,461.4,28.8,461.2,31.7z"/>
	<path d="M514.1,51.5v-4.2c-2.1,3.3-5.2,4.9-9.3,4.9c-2.6,0-5.1-0.7-7.3-2.2s-3.9-3.5-5.2-6.1c-1.2-2.6-1.8-5.6-1.8-9
		c0-3.3,0.6-6.3,1.7-9s2.8-4.8,5-6.2s4.7-2.2,7.4-2.2c2,0,3.8,0.4,5.3,1.3s2.8,1.9,3.8,3.3V5.7h5.6v45.8L514.1,51.5L514.1,51.5z
		 M496.3,35c0,4.2,0.9,7.4,2.7,9.5c1.8,2.1,3.9,3.2,6.3,3.2c2.5,0,4.5-1,6.3-3c1.7-2,2.6-5.1,2.6-9.2c0-4.5-0.9-7.9-2.6-10
		s-3.9-3.2-6.5-3.2c-2.5,0-4.6,1-6.3,3.1C497.2,27.3,496.3,30.6,496.3,35z"/>
</g>
<g class="st28">
	<path d="M547.6,51.5V5.7h9.1l10.8,32.4c1,3,1.7,5.3,2.2,6.8c0.5-1.7,1.3-4.1,2.4-7.3l11-31.9h8.2v45.8h-5.8V13.2l-13.3,38.3h-5.5
		l-13.2-39v39H547.6z"/>
	<path d="M622.2,51.5v-4.9c-2.6,3.8-6.1,5.6-10.5,5.6c-2,0-3.8-0.4-5.5-1.1c-1.7-0.8-3-1.7-3.8-2.8c-0.8-1.1-1.4-2.5-1.7-4.2
		c-0.2-1.1-0.3-2.9-0.3-5.2V18.3h5.6v18.4c0,2.9,0.1,4.9,0.3,5.9c0.4,1.5,1.1,2.6,2.2,3.5c1.1,0.8,2.6,1.3,4.2,1.3s3.3-0.4,4.8-1.3
		s2.5-2,3.1-3.5s0.9-3.7,0.9-6.5V18.3h5.6v33.2L622.2,51.5L622.2,51.5z"/>
	<path d="M635.9,51.5V5.7h5.6v45.8H635.9z"/>
	<path d="M662.5,46.5l0.8,5c-1.6,0.3-3,0.5-4.2,0.5c-2,0-3.6-0.3-4.8-1s-1.9-1.5-2.4-2.5c-0.5-1.1-0.7-3.3-0.7-6.6V22.8h-4.1v-4.4
		h4.1v-8.2l5.6-3.4v11.6h5.7v4.4h-5.7v19.4c0,1.6,0.1,2.6,0.3,3.1c0.2,0.5,0.5,0.8,1,1.1c0.4,0.3,1.1,0.4,1.9,0.4
		C660.7,46.7,661.5,46.6,662.5,46.5z"/>
	<path d="M668.1,12.2V5.7h5.6v6.5H668.1z M668.1,51.5V18.3h5.6v33.2H668.1z"/>
</g>
<g class="st28">
	<path d="M680.1,37.8v-5.7h17.3v5.7H680.1z"/>
</g>
<g class="st28">
	<path d="M704.3,51.5V5.7h20.3c4.1,0,7.2,0.4,9.3,1.2c2.1,0.8,3.8,2.3,5.1,4.4c1.3,2.1,1.9,4.4,1.9,6.9c0,3.2-1.1,6-3.2,8.2
		s-5.4,3.6-9.8,4.2c1.6,0.8,2.8,1.5,3.7,2.3c1.8,1.6,3.4,3.7,5,6.1l8,12.5H737l-6.1-9.5c-1.8-2.8-3.2-4.9-4.4-6.3
		c-1.1-1.5-2.2-2.5-3.1-3.1s-1.8-1-2.8-1.2c-0.7-0.1-1.8-0.2-3.4-0.2h-7v20.3H704.3z M710.4,25.9h13c2.8,0,4.9-0.3,6.5-0.9
		c1.6-0.6,2.8-1.5,3.6-2.8c0.8-1.3,1.2-2.6,1.2-4.1c0-2.2-0.8-3.9-2.4-5.3c-1.6-1.4-4.1-2.1-7.5-2.1h-14.5v15.2H710.4z"/>
	<path d="M772.5,40.8l5.8,0.7c-0.9,3.4-2.6,6-5.1,7.9s-5.6,2.8-9.5,2.8c-4.9,0-8.7-1.5-11.5-4.5s-4.3-7.2-4.3-12.6
		c0-5.6,1.4-9.9,4.3-13s6.6-4.6,11.2-4.6c4.4,0,8.1,1.5,10.9,4.5s4.2,7.3,4.2,12.8c0,0.3,0,0.8,0,1.5h-24.8c0.2,3.6,1.2,6.4,3.1,8.4
		c1.9,1.9,4.2,2.9,6.9,2.9c2.1,0,3.8-0.5,5.3-1.6C770.5,44.9,771.6,43.2,772.5,40.8z M754,31.7h18.5c-0.2-2.8-1-4.9-2.1-6.3
		c-1.8-2.2-4.1-3.2-7-3.2c-2.6,0-4.8,0.9-6.5,2.6C755.2,26.5,754.2,28.8,754,31.7z"/>
	<path d="M785.2,51.5V5.7h5.6v45.8H785.2z"/>
	<path d="M821.2,47.4c-2.1,1.8-4.1,3-6,3.8c-1.9,0.7-4,1.1-6.2,1.1c-3.6,0-6.4-0.9-8.4-2.7c-2-1.8-2.9-4.1-2.9-6.8
		c0-1.6,0.4-3.1,1.1-4.5c0.7-1.3,1.7-2.4,2.9-3.2c1.2-0.8,2.5-1.4,4-1.8c1.1-0.3,2.8-0.6,5-0.8c4.5-0.5,7.9-1.2,10-1.9
		c0-0.8,0-1.3,0-1.5c0-2.3-0.5-3.9-1.6-4.8c-1.4-1.3-3.6-1.9-6.4-1.9c-2.6,0-4.6,0.5-5.9,1.4s-2.2,2.6-2.8,4.9l-5.5-0.8
		c0.5-2.4,1.3-4.3,2.5-5.7c1.1-1.4,2.8-2.6,5-3.3c2.2-0.8,4.7-1.2,7.5-1.2s5.1,0.3,6.9,1s3.1,1.5,3.9,2.5s1.4,2.3,1.8,3.8
		c0.2,1,0.3,2.7,0.3,5.2v7.5c0,5.2,0.1,8.5,0.4,9.9c0.2,1.4,0.7,2.7,1.4,4h-5.9C821.8,50.4,821.4,49,821.2,47.4z M820.7,34.9
		c-2,0.8-5.1,1.5-9.2,2.1c-2.3,0.3-3.9,0.7-4.9,1.1c-1,0.4-1.7,1-2.2,1.8s-0.8,1.7-0.8,2.7c0,1.5,0.6,2.7,1.7,3.7s2.8,1.5,5,1.5
		s4.1-0.5,5.8-1.4c1.7-0.9,2.9-2.2,3.7-3.9c0.6-1.3,0.9-3.1,0.9-5.6V34.9z"/>
	<path d="M847.4,46.5l0.8,5c-1.6,0.3-3,0.5-4.2,0.5c-2,0-3.6-0.3-4.8-1s-1.9-1.5-2.4-2.5c-0.5-1.1-0.7-3.3-0.7-6.6V22.8H832v-4.4
		h4.1v-8.2l5.6-3.4v11.6h5.7v4.4h-5.7v19.4c0,1.6,0.1,2.6,0.3,3.1c0.2,0.5,0.5,0.8,1,1.1c0.4,0.3,1.1,0.4,1.9,0.4
		C845.6,46.7,846.4,46.6,847.4,46.5z"/>
	<path d="M853,12.2V5.7h5.6v6.5H853z M853,51.5V18.3h5.6v33.2H853z"/>
	<path d="M865.1,34.9c0-6.1,1.7-10.7,5.1-13.7c2.9-2.5,6.3-3.7,10.4-3.7c4.6,0,8.3,1.5,11.2,4.5c2.9,3,4.3,7.1,4.3,12.4
		c0,4.3-0.6,7.6-1.9,10.1c-1.3,2.4-3.1,4.3-5.6,5.7c-2.4,1.4-5.1,2-8,2c-4.6,0-8.4-1.5-11.3-4.5C866.5,44.8,865.1,40.5,865.1,34.9z
		 M870.8,34.9c0,4.2,0.9,7.4,2.8,9.5s4.2,3.2,7,3.2s5.1-1.1,7-3.2s2.8-5.4,2.8-9.7c0-4.1-0.9-7.2-2.8-9.3s-4.2-3.2-7-3.2
		s-5.1,1.1-7,3.2C871.8,27.5,870.8,30.7,870.8,34.9z"/>
	<path d="M902.7,51.5V18.3h5.1V23c2.4-3.6,6-5.5,10.6-5.5c2,0,3.8,0.4,5.5,1.1c1.7,0.7,2.9,1.7,3.8,2.8c0.8,1.2,1.4,2.6,1.8,4.2
		c0.2,1,0.3,2.9,0.3,5.5v20.4h-5.6V31.3c0-2.3-0.2-4-0.7-5.1c-0.4-1.1-1.2-2-2.3-2.7c-1.1-0.7-2.4-1-3.9-1c-2.4,0-4.5,0.8-6.2,2.3
		s-2.6,4.4-2.6,8.7v18.1L902.7,51.5L902.7,51.5z"/>
	<path d="M960,47.4c-2.1,1.8-4.1,3-6,3.8c-1.9,0.7-4,1.1-6.2,1.1c-3.6,0-6.4-0.9-8.4-2.7c-2-1.8-2.9-4.1-2.9-6.8
		c0-1.6,0.4-3.1,1.1-4.5c0.7-1.3,1.7-2.4,2.9-3.2c1.2-0.8,2.5-1.4,4-1.8c1.1-0.3,2.8-0.6,5-0.8c4.5-0.5,7.9-1.2,10-1.9
		c0-0.8,0-1.3,0-1.5c0-2.3-0.5-3.9-1.6-4.8c-1.4-1.3-3.6-1.9-6.4-1.9c-2.6,0-4.6,0.5-5.9,1.4s-2.2,2.6-2.8,4.9l-5.5-0.8
		c0.5-2.4,1.3-4.3,2.5-5.7c1.1-1.4,2.8-2.6,5-3.3c2.2-0.8,4.7-1.2,7.5-1.2s5.1,0.3,6.9,1s3.1,1.5,3.9,2.5s1.4,2.3,1.8,3.8
		c0.2,1,0.3,2.7,0.3,5.2v7.5c0,5.2,0.1,8.5,0.4,9.9c0.2,1.4,0.7,2.7,1.4,4h-5.9C960.5,50.4,960.2,49,960,47.4z M959.5,34.9
		c-2,0.8-5.1,1.5-9.2,2.1c-2.3,0.3-3.9,0.7-4.9,1.1c-1,0.4-1.7,1-2.2,1.8s-0.8,1.7-0.8,2.7c0,1.5,0.6,2.7,1.7,3.7s2.8,1.5,5,1.5
		s4.1-0.5,5.8-1.4c1.7-0.9,2.9-2.2,3.7-3.9c0.6-1.3,0.9-3.1,0.9-5.6V34.9z"/>
	<path d="M973.8,51.5V5.7h5.6v45.8H973.8z"/>
	<path d="M1028.1,33.6v-5.4h19.4v17c-3,2.4-6.1,4.2-9.2,5.4c-3.2,1.2-6.4,1.8-9.8,1.8c-4.5,0-8.6-1-12.3-2.9
		c-3.7-1.9-6.5-4.7-8.3-8.4c-1.9-3.6-2.8-7.7-2.8-12.2s0.9-8.6,2.8-12.5s4.5-6.7,8-8.6S1023.4,5,1028,5c3.3,0,6.3,0.5,9,1.6
		s4.8,2.6,6.3,4.5s2.7,4.4,3.5,7.5l-5.5,1.5c-0.7-2.3-1.5-4.2-2.6-5.5c-1-1.3-2.5-2.4-4.4-3.2s-4-1.2-6.3-1.2
		c-2.8,0-5.2,0.4-7.2,1.3c-2,0.8-3.7,2-4.9,3.3c-1.2,1.4-2.2,2.9-2.9,4.5c-1.2,2.8-1.8,5.9-1.8,9.2c0,4.1,0.7,7.5,2.1,10.2
		s3.5,4.8,6.1,6.1c2.7,1.3,5.5,2,8.6,2c2.6,0,5.2-0.5,7.7-1.5s4.4-2.1,5.7-3.2v-8.5L1028.1,33.6L1028.1,33.6z"/>
	<path d="M1055.7,51.5V18.3h5.1v5c1.3-2.4,2.5-3.9,3.6-4.7s2.3-1.1,3.6-1.1c1.9,0,3.8,0.6,5.8,1.8l-1.9,5.2
		c-1.4-0.8-2.8-1.2-4.1-1.2c-1.2,0-2.3,0.4-3.3,1.1c-1,0.7-1.7,1.8-2.1,3.1c-0.6,2-0.9,4.2-0.9,6.6v17.4L1055.7,51.5L1055.7,51.5z"
		/>
	<path d="M1098.7,47.4c-2.1,1.8-4.1,3-6,3.8c-1.9,0.7-4,1.1-6.2,1.1c-3.6,0-6.4-0.9-8.4-2.7c-2-1.8-2.9-4.1-2.9-6.8
		c0-1.6,0.4-3.1,1.1-4.5c0.7-1.3,1.7-2.4,2.9-3.2c1.2-0.8,2.5-1.4,4-1.8c1.1-0.3,2.8-0.6,5-0.8c4.5-0.5,7.9-1.2,10-1.9
		c0-0.8,0-1.3,0-1.5c0-2.3-0.5-3.9-1.6-4.8c-1.4-1.3-3.6-1.9-6.4-1.9c-2.6,0-4.6,0.5-5.9,1.4s-2.2,2.6-2.8,4.9l-5.5-0.8
		c0.5-2.4,1.3-4.3,2.5-5.7c1.1-1.4,2.8-2.6,5-3.3c2.2-0.8,4.7-1.2,7.5-1.2s5.1,0.3,6.9,1s3.1,1.5,3.9,2.5s1.4,2.3,1.8,3.8
		c0.2,1,0.3,2.7,0.3,5.2v7.5c0,5.2,0.1,8.5,0.4,9.9c0.2,1.4,0.7,2.7,1.4,4h-5.9C1099.2,50.4,1098.9,49,1098.7,47.4z M1098.2,34.9
		c-2,0.8-5.1,1.5-9.2,2.1c-2.3,0.3-3.9,0.7-4.9,1.1c-1,0.4-1.7,1-2.2,1.8s-0.8,1.7-0.8,2.7c0,1.5,0.6,2.7,1.7,3.7s2.8,1.5,5,1.5
		s4.1-0.5,5.8-1.4c1.7-0.9,2.9-2.2,3.7-3.9c0.6-1.3,0.9-3.1,0.9-5.6V34.9z"/>
	<path d="M1112.6,64.2V18.3h5.1v4.3c1.2-1.7,2.6-3,4.1-3.8s3.4-1.3,5.5-1.3c2.8,0,5.3,0.7,7.5,2.2s3.8,3.5,4.9,6.2s1.7,5.6,1.7,8.7
		c0,3.4-0.6,6.5-1.8,9.2c-1.2,2.7-3,4.8-5.3,6.2s-4.8,2.2-7.3,2.2c-1.9,0-3.6-0.4-5-1.2c-1.5-0.8-2.7-1.8-3.7-3v16.2H1112.6z
		 M1117.7,35.1c0,4.3,0.9,7.4,2.6,9.5c1.7,2,3.8,3.1,6.3,3.1s4.6-1.1,6.4-3.2s2.7-5.4,2.7-9.8c0-4.2-0.9-7.4-2.6-9.5
		s-3.8-3.2-6.2-3.2c-2.4,0-4.5,1.1-6.4,3.4C1118.6,27.6,1117.7,30.8,1117.7,35.1z"/>
	<path d="M1148.2,51.5V5.7h5.6v16.4c2.6-3,5.9-4.6,9.9-4.6c2.5,0,4.6,0.5,6.4,1.5c1.8,1,3.1,2.3,3.9,4c0.8,1.7,1.2,4.2,1.2,7.4v21
		h-5.6v-21c0-2.8-0.6-4.9-1.8-6.1s-2.9-1.9-5.2-1.9c-1.7,0-3.2,0.4-4.7,1.3c-1.5,0.9-2.5,2-3.1,3.5s-0.9,3.5-0.9,6.1v18.2
		L1148.2,51.5L1148.2,51.5z"/>
</g>
<path class="st32" d="M123.7,37.7h74.6V19.4h-74.6L123.7,37.7z M123.7,28.5L142,1L87,28.5L142,56L123.7,28.5z M198.3,28.5L180,56
	l55-27.5L180,1L198.3,28.5z"/>
<path class="st33" d="M1277,28.5h135.6"/>
<path class="st34" d="M1326,29c0-7.5,8.5-13.5,19-13.5s19,6,19,13.5s-8.5,13.5-19,13.5S1326,36.5,1326,29z"/>
<g class="st28">
	<path d="M1472.4,35.5l6.1,1.5c-1.3,5-3.6,8.8-6.9,11.4c-3.3,2.6-7.3,3.9-12.1,3.9c-4.9,0-9-1-12-3c-3.1-2-5.4-4.9-7.1-8.7
		c-1.6-3.8-2.4-7.9-2.4-12.3c0-4.8,0.9-8.9,2.7-12.5s4.4-6.2,7.8-8.1c3.4-1.8,7.1-2.8,11.1-2.8c4.6,0,8.4,1.2,11.6,3.5
		c3.1,2.3,5.3,5.6,6.5,9.8l-6,1.4c-1.1-3.3-2.6-5.8-4.6-7.3s-4.6-2.3-7.6-2.3c-3.5,0-6.5,0.8-8.8,2.5c-2.4,1.7-4,4-5,6.8
		s-1.4,5.8-1.4,8.8c0,3.9,0.6,7.3,1.7,10.2c1.1,2.9,2.9,5.1,5.3,6.5c2.4,1.4,5,2.2,7.8,2.2c3.4,0,6.3-1,8.6-2.9
		C1470,42.2,1471.6,39.3,1472.4,35.5z"/>
	<path d="M1483.1,34.9c0-6.1,1.7-10.7,5.1-13.7c2.9-2.5,6.3-3.7,10.4-3.7c4.6,0,8.3,1.5,11.2,4.5s4.3,7.1,4.3,12.4
		c0,4.3-0.6,7.6-1.9,10.1c-1.3,2.4-3.1,4.3-5.6,5.7c-2.4,1.4-5.1,2-8,2c-4.6,0-8.4-1.5-11.3-4.5
		C1484.6,44.8,1483.1,40.5,1483.1,34.9z M1488.9,34.9c0,4.2,0.9,7.4,2.8,9.5c1.9,2.1,4.2,3.2,7,3.2s5.1-1.1,7-3.2s2.8-5.4,2.8-9.7
		c0-4.1-0.9-7.2-2.8-9.3c-1.9-2.1-4.2-3.2-7-3.2s-5.1,1.1-7,3.2C1489.8,27.5,1488.9,30.7,1488.9,34.9z"/>
	<path d="M1520.8,51.5V18.3h5.1V23c2.4-3.6,6-5.5,10.6-5.5c2,0,3.8,0.4,5.5,1.1c1.7,0.7,2.9,1.7,3.8,2.8c0.8,1.2,1.4,2.6,1.8,4.2
		c0.2,1,0.3,2.9,0.3,5.5v20.4h-5.6V31.3c0-2.3-0.2-4-0.7-5.1c-0.4-1.1-1.2-2-2.3-2.7s-2.4-1-3.9-1c-2.4,0-4.5,0.8-6.2,2.3
		s-2.6,4.4-2.6,8.7v18.1L1520.8,51.5L1520.8,51.5z"/>
	<path d="M1568.7,46.5l0.8,5c-1.6,0.3-3,0.5-4.2,0.5c-2,0-3.6-0.3-4.8-1s-1.9-1.5-2.4-2.5c-0.5-1.1-0.7-3.3-0.7-6.6V22.8h-4.1v-4.4
		h4.1v-8.2l5.6-3.4v11.6h5.7v4.4h-5.7v19.4c0,1.6,0.1,2.6,0.3,3.1s0.5,0.8,1,1.1c0.4,0.3,1.1,0.4,1.9,0.4
		C1566.8,46.7,1567.7,46.6,1568.7,46.5z"/>
	<path d="M1574.1,51.5V18.3h5.1v5c1.3-2.4,2.5-3.9,3.6-4.7s2.3-1.1,3.6-1.1c1.9,0,3.8,0.6,5.8,1.8l-1.9,5.2
		c-1.4-0.8-2.8-1.2-4.1-1.2c-1.2,0-2.3,0.4-3.3,1.1c-1,0.7-1.7,1.8-2.1,3.1c-0.6,2-0.9,4.2-0.9,6.6v17.4L1574.1,51.5L1574.1,51.5z"
		/>
	<path d="M1593.4,34.9c0-6.1,1.7-10.7,5.1-13.7c2.9-2.5,6.3-3.7,10.4-3.7c4.6,0,8.3,1.5,11.2,4.5s4.3,7.1,4.3,12.4
		c0,4.3-0.6,7.6-1.9,10.1c-1.3,2.4-3.1,4.3-5.6,5.7c-2.4,1.4-5.1,2-8,2c-4.6,0-8.4-1.5-11.3-4.5
		C1594.8,44.8,1593.4,40.5,1593.4,34.9z M1599.2,34.9c0,4.2,0.9,7.4,2.8,9.5c1.9,2.1,4.2,3.2,7,3.2s5.1-1.1,7-3.2s2.8-5.4,2.8-9.7
		c0-4.1-0.9-7.2-2.8-9.3c-1.9-2.1-4.2-3.2-7-3.2s-5.1,1.1-7,3.2C1600.1,27.5,1599.2,30.7,1599.2,34.9z"/>
	<path d="M1631,51.5V5.7h5.6v45.8H1631z"/>
	<path d="M1663.8,51.5V5.7h17.3c3,0,5.4,0.1,7,0.4c2.2,0.4,4.1,1.1,5.7,2.1c1.5,1.1,2.7,2.5,3.7,4.4c0.9,1.9,1.4,4,1.4,6.2
		c0,3.9-1.2,7.2-3.7,9.9s-7,4-13.4,4H1670v18.6h-6.2V51.5z M1669.9,27.5h11.8c3.9,0,6.7-0.7,8.3-2.2s2.5-3.5,2.5-6.2
		c0-1.9-0.5-3.6-1.5-4.9c-1-1.4-2.2-2.3-3.8-2.7c-1-0.3-2.9-0.4-5.7-0.4h-11.7L1669.9,27.5L1669.9,27.5z"/>
	<path d="M1703.7,34.9c0-6.1,1.7-10.7,5.1-13.7c2.9-2.5,6.3-3.7,10.4-3.7c4.6,0,8.3,1.5,11.2,4.5s4.3,7.1,4.3,12.4
		c0,4.3-0.6,7.6-1.9,10.1c-1.3,2.4-3.1,4.3-5.6,5.7c-2.4,1.4-5.1,2-8,2c-4.6,0-8.4-1.5-11.3-4.5
		C1705.1,44.8,1703.7,40.5,1703.7,34.9z M1709.5,34.9c0,4.2,0.9,7.4,2.8,9.5c1.9,2.1,4.2,3.2,7,3.2s5.1-1.1,7-3.2s2.8-5.4,2.8-9.7
		c0-4.1-0.9-7.2-2.8-9.3c-1.9-2.1-4.2-3.2-7-3.2s-5.1,1.1-7,3.2C1710.4,27.5,1709.5,30.7,1709.5,34.9z"/>
	<path d="M1741.4,12.2V5.7h5.6v6.5H1741.4z M1741.4,51.5V18.3h5.6v33.2H1741.4z"/>
	<path d="M1755.6,51.5V18.3h5.1V23c2.4-3.6,6-5.5,10.6-5.5c2,0,3.8,0.4,5.5,1.1c1.7,0.7,2.9,1.7,3.8,2.8c0.8,1.2,1.4,2.6,1.8,4.2
		c0.2,1,0.3,2.9,0.3,5.5v20.4h-5.6V31.3c0-2.3-0.2-4-0.7-5.1c-0.4-1.1-1.2-2-2.3-2.7s-2.4-1-3.9-1c-2.4,0-4.5,0.8-6.2,2.3
		s-2.6,4.4-2.6,8.7v18.1L1755.6,51.5L1755.6,51.5z"/>
	<path d="M1803.5,46.5l0.8,5c-1.6,0.3-3,0.5-4.2,0.5c-2,0-3.6-0.3-4.8-1s-1.9-1.5-2.4-2.5c-0.5-1.1-0.7-3.3-0.7-6.6V22.8h-4.1v-4.4
		h4.1v-8.2l5.6-3.4v11.6h5.7v4.4h-5.7v19.4c0,1.6,0.1,2.6,0.3,3.1s0.5,0.8,1,1.1c0.4,0.3,1.1,0.4,1.9,0.4
		C1801.6,46.7,1802.4,46.6,1803.5,46.5z"/>
</g>
<g class="st28">
	<path d="M2050.8,51.5V5.7h20.3c4.1,0,7.2,0.4,9.3,1.2s3.8,2.3,5.1,4.4c1.3,2.1,1.9,4.4,1.9,6.9c0,3.2-1.1,6-3.2,8.2
		c-2.1,2.2-5.4,3.6-9.8,4.2c1.6,0.8,2.8,1.5,3.7,2.3c1.8,1.6,3.4,3.7,5,6.1l8,12.5h-7.6l-6.1-9.5c-1.8-2.8-3.2-4.9-4.4-6.3
		c-1.1-1.5-2.2-2.5-3.1-3.1c-0.9-0.6-1.8-1-2.8-1.2c-0.7-0.1-1.8-0.2-3.4-0.2h-7v20.3H2050.8z M2056.8,25.9h13
		c2.8,0,4.9-0.3,6.5-0.9c1.6-0.6,2.8-1.5,3.6-2.8s1.2-2.6,1.2-4.1c0-2.2-0.8-3.9-2.4-5.3c-1.6-1.4-4.1-2.1-7.5-2.1h-14.5
		L2056.8,25.9L2056.8,25.9z"/>
	<path d="M2118.9,40.8l5.8,0.7c-0.9,3.4-2.6,6-5.1,7.9s-5.6,2.8-9.5,2.8c-4.9,0-8.7-1.5-11.5-4.5s-4.3-7.2-4.3-12.6
		c0-5.6,1.4-9.9,4.3-13c2.9-3.1,6.6-4.6,11.2-4.6c4.4,0,8.1,1.5,10.9,4.5c2.8,3,4.2,7.3,4.2,12.8c0,0.3,0,0.8,0,1.5h-24.8
		c0.2,3.6,1.2,6.4,3.1,8.4c1.9,1.9,4.2,2.9,6.9,2.9c2.1,0,3.8-0.5,5.3-1.6C2116.9,44.9,2118,43.2,2118.9,40.8z M2100.4,31.7h18.5
		c-0.2-2.8-1-4.9-2.1-6.3c-1.8-2.2-4.1-3.2-7-3.2c-2.6,0-4.8,0.9-6.5,2.6C2101.6,26.5,2100.6,28.8,2100.4,31.7z"/>
	<path d="M2133.1,51.5V22.7h-5v-4.4h5v-3.5c0-2.2,0.2-3.9,0.6-5c0.5-1.5,1.5-2.6,2.9-3.5s3.3-1.4,5.7-1.4c1.6,0,3.3,0.2,5.2,0.6
		l-0.8,4.9c-1.2-0.2-2.3-0.3-3.3-0.3c-1.7,0-2.9,0.4-3.6,1.1c-0.7,0.7-1.1,2.1-1.1,4.1v3.1h6.5v4.4h-6.5v28.8L2133.1,51.5
		L2133.1,51.5z"/>
	<path d="M2149.6,12.2V5.7h5.6v6.5H2149.6z M2149.6,51.5V18.3h5.6v33.2H2149.6z"/>
	<path d="M2163.8,51.5V18.3h5.1V23c2.4-3.6,6-5.5,10.6-5.5c2,0,3.8,0.4,5.5,1.1s2.9,1.7,3.8,2.8c0.8,1.2,1.4,2.6,1.8,4.2
		c0.2,1,0.3,2.9,0.3,5.5v20.4h-5.6V31.3c0-2.3-0.2-4-0.7-5.1c-0.4-1.1-1.2-2-2.3-2.7s-2.4-1-3.9-1c-2.4,0-4.5,0.8-6.2,2.3
		s-2.6,4.4-2.6,8.7v18.1L2163.8,51.5L2163.8,51.5z"/>
	<path d="M2222.1,40.8l5.8,0.7c-0.9,3.4-2.6,6-5.1,7.9s-5.6,2.8-9.5,2.8c-4.9,0-8.7-1.5-11.5-4.5s-4.3-7.2-4.3-12.6
		c0-5.6,1.4-9.9,4.3-13c2.9-3.1,6.6-4.6,11.2-4.6c4.4,0,8.1,1.5,10.9,4.5c2.8,3,4.2,7.3,4.2,12.8c0,0.3,0,0.8,0,1.5h-24.8
		c0.2,3.6,1.2,6.4,3.1,8.4c1.9,1.9,4.2,2.9,6.9,2.9c2.1,0,3.8-0.5,5.3-1.6C2220.1,44.9,2221.2,43.2,2222.1,40.8z M2203.6,31.7h18.5
		c-0.2-2.8-1-4.9-2.1-6.3c-1.8-2.2-4.1-3.2-7-3.2c-2.6,0-4.8,0.9-6.5,2.6C2204.8,26.5,2203.8,28.8,2203.6,31.7z"/>
	<path d="M2256.5,51.5v-4.2c-2.1,3.3-5.2,4.9-9.3,4.9c-2.6,0-5.1-0.7-7.3-2.2s-3.9-3.5-5.2-6.1c-1.2-2.6-1.8-5.6-1.8-9
		c0-3.3,0.6-6.3,1.7-9c1.1-2.7,2.8-4.8,5-6.2s4.7-2.2,7.4-2.2c2,0,3.8,0.4,5.3,1.3s2.8,1.9,3.8,3.3V5.7h5.6v45.8L2256.5,51.5
		L2256.5,51.5z M2238.7,35c0,4.2,0.9,7.4,2.7,9.5s3.9,3.2,6.3,3.2c2.5,0,4.5-1,6.3-3c1.7-2,2.6-5.1,2.6-9.2c0-4.5-0.9-7.9-2.6-10
		s-3.9-3.2-6.5-3.2c-2.5,0-4.6,1-6.3,3.1C2239.5,27.3,2238.7,30.6,2238.7,35z"/>
	<path d="M2299.5,51.5V11.1h-15.1V5.7h36.3v5.4h-15.2v40.4H2299.5z"/>
	<path d="M2323.8,51.5V18.3h5.1v5c1.3-2.4,2.5-3.9,3.6-4.7s2.3-1.1,3.6-1.1c1.9,0,3.8,0.6,5.8,1.8l-1.9,5.2
		c-1.4-0.8-2.8-1.2-4.1-1.2c-1.2,0-2.3,0.4-3.3,1.1c-1,0.7-1.7,1.8-2.1,3.1c-0.6,2-0.9,4.2-0.9,6.6v17.4L2323.8,51.5L2323.8,51.5z"
		/>
	<path d="M2366.8,47.4c-2.1,1.8-4.1,3-6,3.8s-4,1.1-6.2,1.1c-3.6,0-6.4-0.9-8.4-2.7s-2.9-4.1-2.9-6.8c0-1.6,0.4-3.1,1.1-4.5
		s1.7-2.4,2.9-3.2s2.5-1.4,4-1.8c1.1-0.3,2.8-0.6,5-0.8c4.5-0.5,7.9-1.2,10-1.9c0-0.8,0-1.3,0-1.5c0-2.3-0.5-3.9-1.6-4.8
		c-1.4-1.3-3.6-1.9-6.4-1.9c-2.6,0-4.6,0.5-5.9,1.4c-1.3,0.9-2.2,2.6-2.8,4.9l-5.5-0.8c0.5-2.4,1.3-4.3,2.5-5.7
		c1.1-1.4,2.8-2.6,5-3.3s4.7-1.2,7.5-1.2s5.1,0.3,6.9,1c1.8,0.7,3.1,1.5,3.9,2.5c0.8,1,1.4,2.3,1.8,3.8c0.2,1,0.3,2.7,0.3,5.2v7.5
		c0,5.2,0.1,8.5,0.4,9.9c0.2,1.4,0.7,2.7,1.4,4h-5.9C2367.4,50.4,2367,49,2366.8,47.4z M2366.4,34.9c-2,0.8-5.1,1.5-9.2,2.1
		c-2.3,0.3-3.9,0.7-4.9,1.1c-1,0.4-1.7,1-2.2,1.8s-0.8,1.7-0.8,2.7c0,1.5,0.6,2.7,1.7,3.7s2.8,1.5,5,1.5s4.1-0.5,5.8-1.4
		s2.9-2.2,3.7-3.9c0.6-1.3,0.9-3.1,0.9-5.6V34.9z"/>
	<path d="M2373.6,64.4l1.1-4.8c1.1,0.3,2,0.4,2.7,0.4c1.1,0,2-0.4,2.6-1.1c0.6-0.8,0.8-2.7,0.8-5.7V18.3h5.6v35
		c0,4.1-0.5,6.9-1.6,8.5c-1.4,2.1-3.6,3.1-6.8,3.1C2376.5,65,2375,64.8,2373.6,64.4z M2380.8,12.2V5.7h5.6v6.5H2380.8z"/>
	<path d="M2417.7,40.8l5.8,0.7c-0.9,3.4-2.6,6-5.1,7.9s-5.6,2.8-9.5,2.8c-4.9,0-8.7-1.5-11.5-4.5s-4.3-7.2-4.3-12.6
		c0-5.6,1.4-9.9,4.3-13c2.9-3.1,6.6-4.6,11.2-4.6c4.4,0,8.1,1.5,10.9,4.5c2.8,3,4.2,7.3,4.2,12.8c0,0.3,0,0.8,0,1.5h-24.8
		c0.2,3.6,1.2,6.4,3.1,8.4c1.9,1.9,4.2,2.9,6.9,2.9c2.1,0,3.8-0.5,5.3-1.6C2415.7,44.9,2416.9,43.2,2417.7,40.8z M2399.3,31.7h18.5
		c-0.2-2.8-1-4.9-2.1-6.3c-1.8-2.2-4.1-3.2-7-3.2c-2.6,0-4.8,0.9-6.5,2.6C2400.4,26.5,2399.4,28.8,2399.3,31.7z"/>
	<path d="M2452.3,39.4l5.5,0.7c-0.6,3.8-2.2,6.8-4.6,9s-5.5,3.2-9.2,3.2c-4.5,0-8.2-1.5-11-4.5s-4.1-7.2-4.1-12.8
		c0-3.6,0.6-6.7,1.8-9.4s3-4.7,5.4-6s5.1-2,7.9-2c3.6,0,6.6,0.9,8.8,2.7c2.3,1.8,3.8,4.4,4.4,7.8l-5.5,0.8c-0.5-2.2-1.4-3.9-2.8-5
		s-2.9-1.7-4.8-1.7c-2.8,0-5.1,1-6.9,3s-2.7,5.2-2.7,9.6c0,4.5,0.9,7.7,2.6,9.7c1.7,2,3.9,3,6.7,3c2.2,0,4.1-0.7,5.5-2
		C2450.9,44.3,2451.9,42.2,2452.3,39.4z"/>
	<path d="M2474.9,46.5l0.8,5c-1.6,0.3-3,0.5-4.2,0.5c-2,0-3.6-0.3-4.8-1s-1.9-1.5-2.4-2.5c-0.5-1.1-0.7-3.3-0.7-6.6V22.8h-4.1v-4.4
		h4.1v-8.2l5.6-3.4v11.6h5.7v4.4h-5.7v19.4c0,1.6,0.1,2.6,0.3,3.1s0.5,0.8,1,1.1c0.4,0.3,1.1,0.4,1.9,0.4
		C2473,46.7,2473.9,46.6,2474.9,46.5z"/>
	<path d="M2478.3,34.9c0-6.1,1.7-10.7,5.1-13.7c2.9-2.5,6.3-3.7,10.4-3.7c4.6,0,8.3,1.5,11.2,4.5s4.3,7.1,4.3,12.4
		c0,4.3-0.6,7.6-1.9,10.1c-1.3,2.4-3.1,4.3-5.6,5.7s-5.1,2-8,2c-4.6,0-8.4-1.5-11.3-4.5C2479.7,44.8,2478.3,40.5,2478.3,34.9z
		 M2484.1,34.9c0,4.2,0.9,7.4,2.8,9.5c1.9,2.1,4.2,3.2,7,3.2s5.1-1.1,7-3.2s2.8-5.4,2.8-9.7c0-4.1-0.9-7.2-2.8-9.3
		c-1.9-2.1-4.2-3.2-7-3.2s-5.1,1.1-7,3.2C2485,27.5,2484.1,30.7,2484.1,34.9z"/>
	<path d="M2515.9,51.5V18.3h5.1v5c1.3-2.4,2.5-3.9,3.6-4.7s2.3-1.1,3.6-1.1c1.9,0,3.8,0.6,5.8,1.8l-1.9,5.2
		c-1.4-0.8-2.8-1.2-4.1-1.2c-1.2,0-2.3,0.4-3.3,1.1c-1,0.7-1.7,1.8-2.1,3.1c-0.6,2-0.9,4.2-0.9,6.6v17.4L2515.9,51.5L2515.9,51.5z"
		/>
	<path d="M2537,64.3l-0.6-5.3c1.2,0.3,2.3,0.5,3.2,0.5c1.2,0,2.2-0.2,3-0.6s1.4-1,1.8-1.8c0.4-0.6,0.9-2,1.7-4.2
		c0.1-0.3,0.3-0.8,0.5-1.4L2534,18.3h6.1l6.9,19.2c0.9,2.4,1.7,5,2.4,7.7c0.6-2.6,1.4-5.1,2.3-7.6l7.1-19.3h5.6L2551.8,52
		c-1.4,3.6-2.4,6.2-3.2,7.5c-1,1.9-2.1,3.2-3.4,4.1c-1.3,0.9-2.8,1.3-4.6,1.3C2539.6,65,2538.4,64.8,2537,64.3z"/>
</g>
<path class="st35" d="M1890,28.5h131.5"/>
<path class="st3" d="M508,336.5l26-51l26,51l-26,51L508,336.5z"/>
<path class="st36" d="M534,336.5v-39l20,39H534z"/>
<path class="st37" d="M534,336.5v39l20-39H534z"/>
<path class="st38" d="M534,336.5v-39l-20,39H534z"/>
<path class="st39" d="M534,336.5v39l-20-39H534z"/>
<path class="st37" d="M526.5,381.4c-7.2,2.8-10.2,10.2-7.7,18.8c0.6,2-0.9,4-3.3,4.4c-2.7,0.4-4.1,2.4-3.6,5.1
	c0.9,5,7.6,5.2,9.3,0.3c0.5-1.5,1.9-1.3,1.9,0.3c0,0.4,0.4,1.5,0.9,2.4c0,1.2,0,2.4,0,3.6c-0.9,2-4.7,5-6.3,7.1
	c-1.6,2-2,2.5-3.1,5.2c-1.1,2.8-2.6,7.9-3.6,11.2c-1,3.3-1.6,5.6-2.5,8.6s-2.6,8.8-2.8,9.3c-0.2,0.3-0.9,0.4-4.4,0.3l-4.2-0.1
	l-0.8,0.7c-0.5,0.4-0.5,0.2-1.1,1.7c-0.5,1.6-1.7,6-2.2,7.7s-0.2,0-0.6,2.4s-1.5,9.2-1.8,12.1c-0.4,2.9-0.1,1.3-0.5,5.1
	c-0.4,3.8-1.7,14.3-2,17.6v1.9l1.5,1.4c1.4,1.3,3.6,2.8,6.3,4.2c1.3,0.7,7.2,3,9.2,3.6c1.2,0.3,1.2,1.5,0.1,3.4
	c-2.6,4.3-5,10.8-5,13.3c0,0.4-0.2,1.4-0.4,2c-0.6,1.7-0.3,2.2,1.5,3.7c2.3,1.8,4.7,3.1,6.5,3.4c2.2,0.4,2.3,0.6,2.3,3.3
	c0,4.7-1,9.4-2.4,11.6c-1.8,2.8-2.3,3.4-3.7,4.3c-7.8,5-12.1,10.1-18,21.5c-4.1,7.9-10.1,16.4-12.5,17.6c-1.3,0.7-3.8,3.4-5.2,5.2
	c-1.4,1.8-4.1,3.5-3.3,5.6c0.8,2.2,0.2,2.8,8.1,7.3c1.8,1,4.2,2.5,5.6,3.3c5.3,3.2,9,4.3,15.2,4.6c3.8,0.2,4.1,0,3.8-2.2
	c-0.2-1.8-0.5-2.3-1.3-2.4c-2.1-0.4-2.4-0.6-4-2.4s-4.5-6.5-5.7-8.6c-0.7-1.1-1.7-1.7-1.3-3.8c0.5-2.1,1.9-5.1,4-8.6
	c0.4-0.6,6.7-7.1,13.9-14.4l13.2-13.2l2.4-1.2c3.6-1.8,7.1-4.2,7.6-5.2c0.9-1.7,2-4.9,3.2-9.4c2.1-7.4,2.6-9,3.2-10.4
	c1-2.4,0.7-2.7,6.3,6c1.3,1.9,3.7,7,4.7,9.7l0.7,2c0.1,3.3,0.1,6.7,0.2,10c0.2,9.4,0.2,8.9,1,12.8s2.4,7.4,3.3,10.5s1.7,5.2,2,8.3
	c0.4,3.2,0.2,7.1,0.2,10.7s-0.5,10.4-0.1,11s13.3,0.6,25.2,0c9.6-0.5,11.4-1.1,10.2-3.3c-0.9-1.6-1.1-1.7-2.8-1.7
	c-1.8,0-1.9-0.6-3.5-1.3c-1.6-0.7-4.2-2-6.1-3s-3.7-2.7-5.4-2.9c-5.1-0.8-6.6-5.4-6.8-21.8c-0.1-5.1-0.3-11.1-0.5-13.3
	c-0.3-4.4-1-9.4-1.1-13.2c-0.1-3.8-0.2-3.5,0.5-9.4c0.4-2.9-0.3-6.3-2.2-11.3c-1-2.6-2.2-7.4-2.3-9.4l-0.1-1.6l1.5-1.3
	c1.1-1,1.4-1.5,1.3-1.8c-1.3-4.1-3.7-8.9-6.6-13.2c-0.7-1-1.3-2.4-1.8-4.1c-0.4-1.4-1.4-3.8-2.2-5.4c-1.6-3.1-1.6-3.6-0.7-6.8
	c0.2-0.7,0.5-2.2,0.6-3.3c0.6-4.5,1-4.9,3-2.4c0.8,1,2.3,2.7,3.3,3.8c1.9,2,6.4,7.3,7.1,8.4c0.2,0.3,0.5,1.2,0.6,1.9
	c0.3,2.3,1.2,4.7,2.5,7.1c0.7,1.3,1.4,2.7,1.5,3.2c0.7,4,2.5,5.1,6.8,3.9c5-1.4,4.8-6.3-0.6-13.8c-1.1-1.6-2.8-4.1-3.7-5.5
	c-0.9-1.4-1.9-2.9-2.2-3.2c-0.9-1-3-4-4.4-6.5l-2-3.5c-4.8-8.2-5.5-9.3-7.7-12.3c-1.2-1.6-1.5-3-0.8-4.5c0.8-1.9-1.2-1-1.7-3.2
	s-1-6.1-1.6-9.9c2.1-4.1,1.2-9.3-2.1-13.2c-1.4-1.7-3.6-5-4.6-7.1c-5.4-11.3-5.9-14.8-2.8-20.1c1.9-3.2,2-3.3,4.6-3.3
	c2.5,0,3.5-0.6,4-2.4c0.6-2.3,0.8-2.8,1.4-3.5c0.5-0.5,0.7-1.3,0.9-2.6c0.1-1,0.5-2.1,0.8-2.5c0.7-1,0.6-1.7-0.4-3.8l-0.9-1.8
	c0-1.3,0-2.6,0-3.8c0-3.3,0-4-0.4-4.7c-0.3-0.6-0.5-1.7-0.6-3.1c-0.2-2.2-1.5-4.5-2.7-4.5c-0.1,0-0.7-0.2-1.2-0.5s-1.2-0.5-1.4-0.5
	c-0.2,0-1.4-0.5-2.5-1C535.5,380.4,530.4,379.9,526.5,381.4 M512.7,455c0.7,2.6,0.5,3.7-0.5,3.7c-0.9,0-1.3-1-1-2.7
	c0.1-0.8,0.2-2,0.2-2.6C511.4,451.1,511.9,451.7,512.7,455"/>
<path class="st40" d="M489.9,577c-2.1,0.6-6.4,1.9-7.6,2.4c-8.6,3-10.7,16.7-4.5,29.4c2.2,4.5,1.8,5.5-2.9,8.3
	c-13.9,8.2-15.7,10.1-20.1,20.7c-0.6,1.5-1.4,2.8-2.4,4c-1.7,1.9-2.1,3.2-2.1,6c0.1,2.3-0.2,2.6-7.1,9.5c-3.4,3.4-6.4,6.6-6.7,7.1
	c-0.3,0.5-1.2,1.7-2,2.8c-2.9,4-4.1,8.2-5.9,20.5c-0.5,3.3-1.1,4.3-4.1,6.2c-3.8,2.5-3.9,2.9-3.1,11.1c0.2,1.7,0.4,5.4,0.6,8.4
	c0.6,11.1,2,13.8,8.6,16c0.8,0.3,2.5,1.2,3.7,2.2c4.4,3.3,7.3,3.9,11.6,2.3c4.2-1.5,5.8,2.1,5,11.6c-0.4,5.1-0.8,7.1-2.2,13.7
	c-0.3,1.4-0.6,2.9-0.6,3.5c0,0.5-0.2,1.8-0.4,2.8c-0.2,1-0.6,3.6-0.7,5.6c-0.4,4.7-0.5,5-4.5,9.5c-1.7,1.9-3.6,4.4-4.2,5.5l-1.2,2
	l-3.8,1.9c-6.3,3.2-8,4.8-22.3,20.4c-7.2,7.8-10.9,10.6-14.9,11.4c-1.2,0.2-3,0.7-3.9,1s-1.8,0.6-2.1,0.6c-1,0-4.9,1.9-5.9,2.9
	c-1.3,1.2-1.4,2.1-0.7,5.9c0.5,2.5,0.6,2.8,2.4,7c0.7,1.6,2.2,5.6,3.4,8.8c4.2,11.5,7.8,14.8,16.9,15.4c8.9,0.6,10.5-3.3,2.8-7.1
	c-4.7-2.3-5.3-4.8-3-12c0.5-1.4,1-3.4,1.2-4.3c1.2-6.7,8.1-13.4,23.2-22.6c2.1-1.3,6.2-3.9,9-5.9c2.8-1.9,6.4-4.4,8.1-5.6
	s4.6-2.9,6.6-3.8l3.6-1.8l2.9,0.2c4,0.2,4,0.3,9.2-7.1c3.8-5.4,3.8-5.4,6.6,1.6c2.1,5.2,1.9,5.2,9.4,2.9c7.7-2.4,7.8-2.3,7.9,3.9
	c0.1,7.7,0.5,9.6,4.1,20.2c6.4,18.8,7.1,21.9,5.3,25.8c-1.2,2.6-2.5,9-2.5,11.8c0,1.9,0.5,2.8,1.9,3.2c1.2,0.3,23.4,0.2,28.8-0.2
	c2.6-0.2,6.7-0.4,9.1-0.6c4.8-0.3,5.8-0.6,6.4-2c1.2-3-2.2-5.3-10.4-7.1c-3.7-0.8-11.6-5.6-15.2-9.2c-3.4-3.4-5.4-11.3-5.8-23.2
	c-0.1-2.8-0.3-6.2-0.4-7.5c-0.2-1.3-0.4-4.3-0.6-6.5s-0.5-4.9-0.7-5.9c-0.8-3.9-0.9-6.7-0.1-8.1c0.9-1.8,1-4.1,0.3-11.8
	c-0.3-3.7-0.7-7.7-0.8-8.8c-0.1-1.1-0.3-2.5-0.4-3c-0.2-0.6-0.4-2.1-0.6-3.3c-0.3-2.4-0.7-4.2-1.9-9.9c-1.2-5.8-4.6-13.5-8.7-20
	c-1-1.5-1.8-2.9-1.8-3s-1-2.3-2.2-4.9c-1.2-2.7-2.3-5.5-2.4-6.5c-0.2-0.9-0.5-2.3-0.7-3.1c-0.8-2.5-0.4-7.9,0.6-9.5
	c0.9-1.5,2.1-0.8,7.6,4.3c5.3,4.9,6.3,6.1,8,9.3c1.2,2.3,2,3.5,4.5,6.1c1.9,2.1,3.7,4.3,4.9,6.4c2.2,3.5,2.6,3.9,5.1,4.8
	c3.1,1.1,4,0.7,5.2-2.3c2-5,0.3-12.6-4-17.9c-1.9-2.4-2.5-2.8-5.8-4.5c-2.4-1.3-3-1.7-4.2-3.2c-0.7-1-2.4-2.9-3.6-4.2
	c-8.2-8.7-16.1-19.1-17.1-22.4c-0.6-2.1-0.7-7.5-0.2-11.9c0.3-2.3,0.6-5,0.6-5.9c0.1-0.9,0.4-3,0.6-4.5c0.9-6,0.2-13.7-1.8-21
	c-2.9-10.5-2.8-11.7,0.4-15.4c0.9-1,2.2-2.8,2.8-3.8c1.3-2.3,2.1-2.8,5.1-3.4c3.5-0.7,3.8-0.9,4.6-4.5c0.7-3.1,2.4-6.8,3.5-7.5
	c1.9-1.3,2-2,0.7-4.6c-1-2.1-1.4-8.9-0.7-12.7c0.6-3.3-0.5-7.2-2.6-9.1C504.8,577.6,495.1,575.5,489.9,577"/>
<path class="st41" d="M684.9,583c-2.1,0.6-6.4,1.9-7.6,2.3c-8.6,3-10.7,16.7-4.5,29.3c2.2,4.5,1.8,5.4-2.9,8.3
	c-13.9,8.2-15.7,10.1-20.1,20.7c-0.6,1.5-1.4,2.8-2.4,3.9c-1.7,1.9-2.2,3.2-2.1,6c0.1,2.3-0.2,2.6-7.1,9.5c-3.4,3.4-6.4,6.6-6.7,7
	c-0.3,0.4-1.2,1.7-2,2.8c-2.9,4-4.1,8.2-5.9,20.4c-0.5,3.2-1.2,4.2-4.1,6.2c-3.8,2.5-3.9,2.9-3.1,11.1c0.2,1.7,0.4,5.4,0.6,8.3
	c0.6,11,2,13.8,8.6,15.9c0.8,0.3,2.5,1.2,3.7,2.2c4.4,3.3,7.3,3.9,11.6,2.3c4.2-1.5,5.8,2.1,5,11.6c-0.4,5.1-0.8,7.1-2.2,13.7
	c-0.3,1.4-0.6,2.9-0.6,3.4s-0.2,1.8-0.4,2.8c-0.2,1-0.6,3.5-0.7,5.6c-0.4,4.6-0.5,5-4.5,9.5c-1.7,1.9-3.6,4.3-4.2,5.4l-1.2,2
	l-3.8,1.9c-6.3,3.2-8,4.8-22.3,20.3c-7.2,7.8-10.9,10.6-14.9,11.3c-1.2,0.2-3,0.7-3.9,1s-1.8,0.6-2.1,0.6c-1,0-4.9,1.9-5.9,2.9
	c-1.3,1.2-1.4,2.1-0.7,5.9c0.5,2.6,0.6,2.8,2.4,7c0.7,1.7,2.2,5.6,3.4,8.7c4.2,11.4,7.8,14.7,16.9,15.3c8.9,0.6,10.5-3.3,2.8-7.1
	c-4.7-2.3-5.3-4.7-3-11.9c0.5-1.4,1-3.4,1.2-4.3c1.2-6.7,8.1-13.3,23.2-22.5c2.1-1.3,6.2-3.9,9-5.9c2.8-1.9,6.4-4.4,8.1-5.6
	c1.7-1.1,4.6-2.9,6.6-3.8l3.6-1.8l2.9,0.2c4,0.2,4,0.3,9.2-7.1c3.8-5.4,3.8-5.3,6.6,1.6c2.1,5.2,1.9,5.2,9.4,2.8
	c7.7-2.4,7.8-2.3,7.9,3.9c0.1,7.7,0.5,9.6,4.1,20.1c6.4,18.8,7.1,21.9,5.3,25.7c-1.2,2.6-2.5,8.9-2.5,11.8c0,1.9,0.5,2.8,1.9,3.2
	c1.2,0.3,23.4,0.2,28.8-0.2c2.6-0.2,6.7-0.4,9.1-0.6c4.8-0.3,5.8-0.6,6.4-2c1.2-2.9-2.2-5.3-10.4-7c-3.7-0.8-11.6-5.5-15.2-9.1
	c-3.4-3.4-5.4-11.3-5.8-23.2c-0.1-2.8-0.3-6.1-0.4-7.5c-0.2-1.3-0.4-4.2-0.6-6.5c-0.2-2.2-0.5-4.8-0.7-5.9c-0.8-3.9-0.9-6.7-0.1-8.1
	c0.9-1.8,1-4.1,0.3-11.7c-0.3-3.7-0.7-7.7-0.8-8.8c-0.1-1.1-0.3-2.5-0.4-3c-0.2-0.6-0.4-2-0.6-3.3c-0.3-2.4-0.7-4.2-1.9-9.9
	c-1.2-5.7-4.6-13.5-8.7-19.9c-1-1.5-1.8-2.9-1.8-3s-1-2.3-2.2-4.9s-2.3-5.5-2.4-6.4c-0.2-0.9-0.5-2.3-0.7-3.1
	c-0.8-2.5-0.4-7.9,0.6-9.5c0.9-1.4,2.1-0.8,7.6,4.3c5.3,4.9,6.3,6.1,8,9.3c1.2,2.3,2,3.5,4.5,6.1c1.9,2.1,3.7,4.3,4.9,6.4
	c2.2,3.5,2.6,3.9,5.1,4.8c3.1,1.1,4,0.7,5.2-2.3c2-5,0.3-12.5-4-17.9c-1.9-2.3-2.5-2.8-5.8-4.5c-2.4-1.3-3-1.7-4.2-3.2
	c-0.7-1-2.4-2.8-3.6-4.2c-8.2-8.7-16.1-19.1-17.1-22.3c-0.6-2.1-0.7-7.5-0.2-11.8c0.2-2.3,0.5-4.9,0.6-5.9s0.4-3,0.6-4.5
	c0.9-5.9,0.2-13.7-1.8-21c-2.9-10.5-2.8-11.7,0.4-15.4c0.9-1,2.2-2.7,2.8-3.8c1.3-2.3,2.1-2.8,5.1-3.4c3.5-0.7,3.8-0.9,4.6-4.5
	c0.7-3,2.4-6.7,3.5-7.5c1.9-1.3,2-2,0.7-4.6c-1-2.1-1.4-8.9-0.7-12.7c0.6-3.3-0.5-7.2-2.6-9.1C699.8,583.6,690.1,581.5,684.9,583"/>
<path class="st27" d="M851,543l26-51.5l26,51.5l-26,51.5L851,543z"/>
<path class="st42" d="M877,542.5v-38l20,38H877z"/>
<path class="st43" d="M877,542.5v39l20-39H877z"/>
<path class="st44" d="M877,542.5v-38l-20,38H877z"/>
<path class="st45" d="M877,542.5v39l-20-39H877z"/>
<path class="st33" d="M904,870.3l351.7-19.7"/>
<path class="st46" d="M1256,850c0-9.1,10.3-16.5,23-16.5s23,7.4,23,16.5s-10.3,16.5-23,16.5S1256,859.1,1256,850z"/>
<path class="st46" d="M1682,941c0-9.1,10.3-16.5,23-16.5s23,7.4,23,16.5s-10.3,16.5-23,16.5S1682,950.1,1682,941z"/>
<path class="st47" d="M1295,861.5l387,79.1"/>
<path class="st46" d="M1630,726c0-9.1,10.3-16.5,23-16.5s23,7.4,23,16.5s-10.3,16.5-23,16.5S1630,735.1,1630,726z"/>
<path class="st33" d="M1295,838.6l341.7-101.1"/>
<path class="st46" d="M1709,503c0-9.1,10.3-16.5,23-16.5s23,7.4,23,16.5s-10.3,16.5-23,16.5S1709,512.1,1709,503z"/>
<path class="st33" d="M1669,714.1l63.1-194.6"/>
<path class="st46" d="M2038,712c0-9.1,10.3-16.5,23-16.5s23,7.4,23,16.5s-10.3,16.5-23,16.5S2038,721.1,2038,712z"/>
<path class="st47" d="M1676,726.1l362.1-13.5"/>
<path class="st46" d="M2086,910c0-9.1,10.3-16.5,23-16.5s23,7.4,23,16.5s-10.3,16.5-23,16.5S2086,919.1,2086,910z"/>
<path class="st47" d="M1728,940.8l358-31.3"/>
<path class="st46" d="M2121,944c0-9.1,10.3-16.5,23-16.5s23,7.4,23,16.5s-10.3,16.5-23,16.5S2121,953.1,2121,944z"/>
<path class="st47" d="M1728,940.5l393.4,2.8"/>
<path class="st48" d="M1732.5,453.6c-6.8,0-12.2-5.5-12.2-12.3s5.4-12.3,12.2-12.3s12.2,5.5,12.2,12.3
	C1744.8,448.1,1739.3,453.6,1732.5,453.6z M1732.5,412.5c-9.4,0-18.2,4.7-23.6,12.6c-5.3,7.8-6.4,17.8-3,26.7l12.9,28.7L1730,504
	c0.4,0.9,1.4,1.5,2.4,1.5s2-0.6,2.4-1.5l11.2-23.5l12.9-28.7c3.4-8.9,2.3-18.9-3-26.7C1750.8,417.2,1741.9,412.5,1732.5,412.5z"/>
<path class="st49" d="M2061.5,665.4c-6.4,0-11.6-5.1-11.6-11.5s5.2-11.5,11.6-11.5s11.6,5.1,11.6,11.5S2067.9,665.4,2061.5,665.4z
	 M2061.5,627c-8.9,0-17.3,4.3-22.3,11.8c-5,7.3-6.1,16.6-2.8,24.9l12.2,26.9l10.6,22c0.4,0.9,1.3,1.4,2.3,1.4s1.9-0.5,2.3-1.4
	l10.6-22l12.2-26.9c3.2-8.3,2.2-17.7-2.8-24.9C2078.8,631.4,2070.4,627,2061.5,627z"/>
<path class="st49" d="M2109.5,861.4c-6.4,0-11.6-5.1-11.6-11.5s5.2-11.5,11.6-11.5s11.6,5.1,11.6,11.5S2115.9,861.4,2109.5,861.4z
	 M2109.5,823c-8.9,0-17.3,4.3-22.3,11.8c-5,7.3-6.1,16.6-2.8,24.9l12.2,26.9l10.6,22c0.4,0.9,1.3,1.4,2.3,1.4s1.9-0.5,2.3-1.4
	l10.6-22l12.2-26.9c3.2-8.3,2.2-17.7-2.8-24.9C2126.8,827.4,2118.4,823,2109.5,823z"/>
<path class="st49" d="M2144.5,896.4c-6.4,0-11.6-5.1-11.6-11.5s5.2-11.5,11.6-11.5s11.6,5.1,11.6,11.5S2150.9,896.4,2144.5,896.4z
	 M2144.5,858c-8.9,0-17.3,4.3-22.3,11.8c-5,7.3-6.1,16.6-2.8,24.9l12.2,26.9l10.6,22c0.4,0.9,1.3,1.4,2.3,1.4s1.9-0.5,2.3-1.4
	l10.6-22l12.2-26.9c3.2-8.3,2.2-17.7-2.8-24.9C2161.8,862.4,2153.4,858,2144.5,858z"/>
<g class="st28">
	<path class="st29" d="M2098.2,994.5l6.1,1.5c-1.3,5-3.6,8.8-6.9,11.4c-3.3,2.6-7.3,3.9-12.1,3.9c-4.9,0-9-1-12-3
		c-3.1-2-5.4-4.9-7.1-8.7c-1.6-3.8-2.4-7.9-2.4-12.3c0-4.8,0.9-8.9,2.7-12.5s4.4-6.2,7.8-8.1c3.4-1.8,7.1-2.8,11.1-2.8
		c4.6,0,8.4,1.2,11.6,3.5c3.1,2.3,5.3,5.6,6.5,9.8l-6,1.4c-1.1-3.3-2.6-5.8-4.6-7.3s-4.6-2.3-7.6-2.3c-3.5,0-6.5,0.8-8.8,2.5
		c-2.4,1.7-4,4-5,6.8s-1.4,5.8-1.4,8.8c0,3.9,0.6,7.3,1.7,10.2c1.1,2.9,2.9,5.1,5.3,6.5c2.4,1.4,5,2.2,7.8,2.2c3.4,0,6.3-1,8.6-2.9
		C2095.7,1001.2,2097.3,998.3,2098.2,994.5z"/>
	<path class="st29" d="M2132.6,1006.4c-2.1,1.8-4.1,3-6,3.8c-1.9,0.7-4,1.1-6.2,1.1c-3.6,0-6.4-0.9-8.4-2.7c-2-1.8-2.9-4.1-2.9-6.8
		c0-1.6,0.4-3.1,1.1-4.5c0.7-1.3,1.7-2.4,2.9-3.2c1.2-0.8,2.5-1.4,4-1.8c1.1-0.3,2.8-0.6,5-0.8c4.5-0.5,7.9-1.2,10-1.9
		c0-0.8,0-1.3,0-1.5c0-2.3-0.5-3.9-1.6-4.8c-1.4-1.3-3.6-1.9-6.4-1.9c-2.6,0-4.6,0.5-5.9,1.4c-1.3,0.9-2.2,2.6-2.8,4.9l-5.5-0.8
		c0.5-2.4,1.3-4.3,2.5-5.7c1.1-1.4,2.8-2.6,5-3.3c2.2-0.8,4.7-1.2,7.5-1.2s5.1,0.3,6.9,1c1.8,0.7,3.1,1.5,3.9,2.5
		c0.8,1,1.4,2.3,1.8,3.8c0.2,1,0.3,2.7,0.3,5.2v7.5c0,5.2,0.1,8.5,0.4,9.9c0.2,1.4,0.7,2.7,1.4,4h-5.9
		C2133.2,1009.4,2132.8,1008,2132.6,1006.4z M2132.2,993.9c-2,0.8-5.1,1.5-9.2,2.1c-2.3,0.3-3.9,0.7-4.9,1.1s-1.7,1-2.2,1.8
		s-0.8,1.7-0.8,2.7c0,1.5,0.6,2.8,1.7,3.8c1.1,1,2.8,1.5,5,1.5s4.1-0.5,5.8-1.4s2.9-2.2,3.7-3.9c0.6-1.3,0.9-3.1,0.9-5.6V993.9z"/>
	<path class="st29" d="M2146.6,1010.5v-33.2h5.1v4.7c2.4-3.6,6-5.5,10.6-5.5c2,0,3.8,0.4,5.5,1.1s2.9,1.7,3.8,2.8
		c0.8,1.2,1.4,2.6,1.8,4.2c0.2,1,0.3,2.9,0.3,5.5v20.4h-5.6v-20.2c0-2.3-0.2-4-0.7-5.1c-0.4-1.1-1.2-2-2.3-2.7s-2.4-1-3.9-1
		c-2.4,0-4.5,0.8-6.2,2.3s-2.6,4.4-2.6,8.7v18.1h-5.8V1010.5z"/>
	<path class="st29" d="M2203.7,1010.5v-4.2c-2.1,3.3-5.2,4.9-9.3,4.9c-2.6,0-5.1-0.7-7.3-2.2s-3.9-3.5-5.2-6.1
		c-1.2-2.6-1.8-5.6-1.8-9c0-3.3,0.6-6.3,1.7-9c1.1-2.7,2.8-4.8,5-6.2c2.2-1.4,4.7-2.2,7.4-2.2c2,0,3.8,0.4,5.3,1.3s2.8,1.9,3.8,3.3
		v-16.4h5.6v45.8L2203.7,1010.5L2203.7,1010.5z M2185.9,994c0,4.2,0.9,7.4,2.7,9.5s3.9,3.2,6.3,3.2c2.5,0,4.5-1,6.3-3
		c1.7-2,2.6-5.1,2.6-9.2c0-4.5-0.9-7.9-2.6-10s-3.9-3.2-6.5-3.2c-2.5,0-4.6,1-6.3,3.1C2186.7,986.3,2185.9,989.6,2185.9,994z"/>
	<path class="st29" d="M2217.8,971.2v-6.5h5.6v6.5H2217.8z M2217.8,1010.5v-33.2h5.6v33.2H2217.8z"/>
	<path class="st29" d="M2253.5,1010.5v-4.2c-2.1,3.3-5.2,4.9-9.3,4.9c-2.6,0-5.1-0.7-7.3-2.2s-3.9-3.5-5.2-6.1
		c-1.2-2.6-1.8-5.6-1.8-9c0-3.3,0.6-6.3,1.7-9c1.1-2.7,2.8-4.8,5-6.2c2.2-1.4,4.7-2.2,7.4-2.2c2,0,3.8,0.4,5.3,1.3s2.8,1.9,3.8,3.3
		v-16.4h5.6v45.8L2253.5,1010.5L2253.5,1010.5z M2235.7,994c0,4.2,0.9,7.4,2.7,9.5s3.9,3.2,6.3,3.2c2.5,0,4.5-1,6.3-3
		c1.7-2,2.6-5.1,2.6-9.2c0-4.5-0.9-7.9-2.6-10s-3.9-3.2-6.5-3.2c-2.5,0-4.6,1-6.3,3.1C2236.6,986.3,2235.7,989.6,2235.7,994z"/>
	<path class="st29" d="M2289.2,1006.4c-2.1,1.8-4.1,3-6,3.8c-1.9,0.7-4,1.1-6.2,1.1c-3.6,0-6.4-0.9-8.4-2.7c-2-1.8-2.9-4.1-2.9-6.8
		c0-1.6,0.4-3.1,1.1-4.5c0.7-1.3,1.7-2.4,2.9-3.2c1.2-0.8,2.5-1.4,4-1.8c1.1-0.3,2.8-0.6,5-0.8c4.5-0.5,7.9-1.2,10-1.9
		c0-0.8,0-1.3,0-1.5c0-2.3-0.5-3.9-1.6-4.8c-1.4-1.3-3.6-1.9-6.4-1.9c-2.6,0-4.6,0.5-5.9,1.4c-1.3,0.9-2.2,2.6-2.8,4.9l-5.5-0.8
		c0.5-2.4,1.3-4.3,2.5-5.7c1.1-1.4,2.8-2.6,5-3.3c2.2-0.8,4.7-1.2,7.5-1.2s5.1,0.3,6.9,1c1.8,0.7,3.1,1.5,3.9,2.5
		c0.8,1,1.4,2.3,1.8,3.8c0.2,1,0.3,2.7,0.3,5.2v7.5c0,5.2,0.1,8.5,0.4,9.9c0.2,1.4,0.7,2.7,1.4,4h-5.9
		C2289.8,1009.4,2289.4,1008,2289.2,1006.4z M2288.7,993.9c-2,0.8-5.1,1.5-9.2,2.1c-2.3,0.3-3.9,0.7-4.9,1.1s-1.7,1-2.2,1.8
		s-0.8,1.7-0.8,2.7c0,1.5,0.6,2.8,1.7,3.8c1.1,1,2.8,1.5,5,1.5s4.1-0.5,5.8-1.4s2.9-2.2,3.7-3.9c0.6-1.3,0.9-3.1,0.9-5.6V993.9z"/>
	<path class="st29" d="M2315.4,1005.5l0.8,5c-1.6,0.3-3,0.5-4.2,0.5c-2,0-3.6-0.3-4.8-1s-1.9-1.5-2.4-2.5c-0.5-1.1-0.7-3.3-0.7-6.6
		v-19.1h-4.1v-4.4h4.1v-8.2l5.6-3.4v11.6h5.7v4.4h-5.7v19.4c0,1.6,0.1,2.6,0.3,3.1s0.5,0.8,1,1.1c0.4,0.3,1.1,0.4,1.9,0.4
		C2313.6,1005.7,2314.4,1005.6,2315.4,1005.5z"/>
	<path class="st29" d="M2343.7,999.8l5.8,0.7c-0.9,3.4-2.6,6-5.1,7.9s-5.6,2.8-9.5,2.8c-4.9,0-8.7-1.5-11.5-4.5s-4.3-7.2-4.3-12.6
		c0-5.6,1.4-9.9,4.3-13c2.9-3.1,6.6-4.6,11.2-4.6c4.4,0,8.1,1.5,10.9,4.5c2.8,3,4.2,7.3,4.2,12.8c0,0.3,0,0.8,0,1.5h-24.8
		c0.2,3.6,1.2,6.4,3.1,8.4c1.9,1.9,4.2,2.9,6.9,2.9c2.1,0,3.8-0.5,5.3-1.6C2341.6,1003.9,2342.8,1002.2,2343.7,999.8z M2325.2,990.7
		h18.5c-0.2-2.8-1-4.9-2.1-6.3c-1.8-2.2-4.1-3.2-7-3.2c-2.6,0-4.8,0.9-6.5,2.6C2326.3,985.5,2325.4,987.8,2325.2,990.7z"/>
	<path class="st29" d="M2354.3,1000.6l5.6-0.9c0.3,2.2,1.2,3.9,2.6,5.1c1.4,1.2,3.4,1.8,6,1.8s4.5-0.5,5.8-1.6
		c1.2-1.1,1.9-2.3,1.9-3.7c0-1.3-0.6-2.3-1.7-3c-0.8-0.5-2.7-1.1-5.8-1.9c-4.1-1-7-1.9-8.6-2.7c-1.6-0.8-2.8-1.8-3.6-3.2
		c-0.8-1.3-1.2-2.8-1.2-4.5c0-1.5,0.3-2.8,1-4.1c0.7-1.3,1.6-2.3,2.8-3.1c0.9-0.6,2.1-1.2,3.6-1.6s3.1-0.7,4.9-0.7
		c2.6,0,4.9,0.4,6.9,1.1s3.4,1.8,4.4,3s1.6,3,1.9,5.1l-5.5,0.8c-0.2-1.7-1-3-2.2-4s-2.9-1.4-5.1-1.4c-2.6,0-4.4,0.4-5.5,1.3
		s-1.7,1.9-1.7,3c0,0.7,0.2,1.4,0.7,2s1.2,1.1,2.2,1.5c0.6,0.2,2.2,0.7,5,1.4c4,1.1,6.8,1.9,8.3,2.6c1.6,0.7,2.8,1.7,3.7,3
		s1.3,2.9,1.3,4.8s-0.5,3.6-1.6,5.3s-2.7,2.9-4.7,3.8s-4.4,1.4-7,1.4c-4.3,0-7.6-0.9-9.9-2.7
		C2356.3,1006.8,2354.9,1004.1,2354.3,1000.6z"/>
</g>
<path class="st50" d="M1774.7,377.6c-2,0.8-5.1,1.6-9.2,2.1c-2.3,0.3-3.9,0.7-4.9,1.1s-1.7,1-2.2,1.8s-0.8,1.7-0.8,2.7
	c0,1.5,0.6,2.8,1.7,3.8c1.1,1,2.8,1.5,5,1.5s4.1-0.5,5.8-1.4c1.7-1,2.9-2.2,3.7-3.9c0.6-1.3,0.9-3.1,0.9-5.6V377.6z M1732,365
	c-2.8,0-5.1,1.1-7,3.2c-1.8,2.1-2.8,5.3-2.8,9.5s0.9,7.4,2.8,9.5c1.9,2.1,4.2,3.2,7,3.2s5.1-1.1,7-3.2s2.8-5.4,2.8-9.7
	c0-4.1-0.9-7.2-2.8-9.3C1737.1,366.1,1734.8,365,1732,365z M1767.5,360.3c2.8,0,5.1,0.3,6.9,1c1.8,0.7,3.1,1.5,3.9,2.5
	c0.8,1,1.4,2.3,1.8,3.8c0.2,0.9,0.3,2.7,0.3,5.2v7.5c0,5.2,0.1,8.5,0.4,9.9c0.2,1.4,0.7,2.7,1.4,4h-5.9c-0.6-1.2-1-2.5-1.1-4.1
	c-2.1,1.8-4.1,3-6,3.8c-1.9,0.7-4,1.1-6.2,1.1c-3.6,0-6.4-0.9-8.4-2.7c-2-1.8-2.9-4.1-2.9-6.8c0-1.6,0.4-3.1,1.1-4.4
	c0.7-1.4,1.7-2.4,2.9-3.2c1.2-0.8,2.5-1.4,4-1.8c1.1-0.3,2.8-0.6,5-0.8c4.5-0.6,7.9-1.2,10-1.9c0-0.8,0-1.3,0-1.5
	c0-2.3-0.5-3.9-1.6-4.8c-1.4-1.3-3.6-1.9-6.4-1.9c-2.6,0-4.6,0.5-5.9,1.4c-1.3,0.9-2.2,2.6-2.8,4.9l-5.5-0.8
	c0.5-2.4,1.3-4.2,2.5-5.7c1.1-1.4,2.8-2.6,5-3.3C1762.2,360.7,1764.7,360.3,1767.5,360.3z M1732,360.3c4.6,0,8.3,1.5,11.2,4.5
	s4.4,7.1,4.4,12.4c0,4.3-0.6,7.6-1.9,10.1c-1.3,2.4-3.1,4.3-5.6,5.7c-2.4,1.3-5.1,2-8,2c-4.6,0-8.4-1.5-11.3-4.5
	c-2.9-3-4.3-7.3-4.3-12.9c0-6.2,1.7-10.7,5.1-13.7C1724.4,361.6,1727.9,360.3,1732,360.3z M1789.4,348.5h5.6v45.8h-5.6V348.5z
	 M1690.6,347.7c3.3,0,6.3,0.5,9,1.6s4.8,2.6,6.3,4.5s2.7,4.4,3.5,7.5l-5.5,1.5c-0.7-2.3-1.5-4.2-2.6-5.5s-2.5-2.4-4.4-3.2
	c-1.9-0.8-4-1.2-6.3-1.2c-2.8,0-5.2,0.4-7.2,1.3c-2,0.8-3.6,1.9-4.9,3.3c-1.2,1.4-2.2,2.9-2.9,4.5c-1.2,2.8-1.8,5.9-1.8,9.2
	c0,4.1,0.7,7.5,2.1,10.2c1.4,2.8,3.5,4.8,6.1,6.1c2.7,1.3,5.5,2,8.6,2c2.6,0,5.2-0.5,7.7-1.5s4.4-2.1,5.7-3.2v-8.5h-13.5v-5.4h19.4
	v17c-3,2.4-6.1,4.2-9.2,5.3c-3.2,1.2-6.4,1.8-9.8,1.8c-4.5,0-8.6-1-12.3-2.9s-6.5-4.7-8.3-8.4c-1.9-3.6-2.8-7.7-2.8-12.2
	s0.9-8.6,2.8-12.5c1.9-3.9,4.6-6.7,8.1-8.6C1682,348.6,1686.1,347.7,1690.6,347.7z"/>
<g class="st28">
	<path class="st29" d="M1690.7,376.6v-5.4h19.4v17c-3,2.4-6.1,4.2-9.2,5.4s-6.4,1.8-9.8,1.8c-4.5,0-8.6-1-12.3-2.9s-6.5-4.7-8.3-8.4
		c-1.9-3.6-2.8-7.7-2.8-12.2s0.9-8.6,2.8-12.5c1.9-3.9,4.5-6.7,8-8.6s7.5-2.8,12.1-2.8c3.3,0,6.3,0.5,9,1.6s4.8,2.6,6.3,4.5
		s2.7,4.4,3.5,7.5l-5.5,1.5c-0.7-2.3-1.5-4.2-2.6-5.5c-1-1.3-2.5-2.4-4.4-3.2c-1.9-0.8-4-1.2-6.3-1.2c-2.8,0-5.2,0.4-7.2,1.3
		s-3.7,2-4.9,3.3s-2.2,2.9-2.9,4.5c-1.2,2.8-1.8,5.9-1.8,9.2c0,4.1,0.7,7.5,2.1,10.2s3.5,4.8,6.1,6.1c2.7,1.3,5.5,2,8.6,2
		c2.6,0,5.2-0.5,7.7-1.5s4.4-2.1,5.7-3.2v-8.5L1690.7,376.6L1690.7,376.6z"/>
	<path class="st29" d="M1716.2,377.9c0-6.1,1.7-10.7,5.1-13.7c2.9-2.5,6.3-3.7,10.4-3.7c4.6,0,8.3,1.5,11.2,4.5s4.3,7.1,4.3,12.4
		c0,4.3-0.6,7.6-1.9,10.1c-1.3,2.4-3.1,4.3-5.6,5.7s-5.1,2-8,2c-4.6,0-8.4-1.5-11.3-4.5C1717.6,387.8,1716.2,383.5,1716.2,377.9z
		 M1722,377.9c0,4.2,0.9,7.4,2.8,9.5c1.9,2.1,4.2,3.2,7,3.2s5.1-1.1,7-3.2s2.8-5.4,2.8-9.7c0-4.1-0.9-7.2-2.8-9.3
		c-1.9-2.1-4.2-3.2-7-3.2s-5.1,1.1-7,3.2C1722.9,370.5,1722,373.7,1722,377.9z"/>
	<path class="st29" d="M1775.5,390.4c-2.1,1.8-4.1,3-6,3.8s-4,1.1-6.2,1.1c-3.6,0-6.4-0.9-8.4-2.7s-2.9-4.1-2.9-6.8
		c0-1.6,0.4-3.1,1.1-4.5s1.7-2.4,2.9-3.2s2.5-1.4,4-1.8c1.1-0.3,2.8-0.6,5-0.8c4.5-0.5,7.9-1.2,10-1.9c0-0.8,0-1.3,0-1.5
		c0-2.3-0.5-3.9-1.6-4.8c-1.4-1.3-3.6-1.9-6.4-1.9c-2.6,0-4.6,0.5-5.9,1.4c-1.3,0.9-2.2,2.6-2.8,4.9l-5.5-0.8
		c0.5-2.4,1.3-4.3,2.5-5.7c1.1-1.4,2.8-2.6,5-3.3s4.7-1.2,7.5-1.2s5.1,0.3,6.9,1c1.8,0.7,3.1,1.5,3.9,2.5c0.8,1,1.4,2.3,1.8,3.8
		c0.2,1,0.3,2.7,0.3,5.2v7.5c0,5.2,0.1,8.5,0.4,9.9c0.2,1.4,0.7,2.7,1.4,4h-5.9C1776.1,393.4,1775.7,392,1775.5,390.4z
		 M1775.1,377.9c-2,0.8-5.1,1.5-9.2,2.1c-2.3,0.3-3.9,0.7-4.9,1.1s-1.7,1-2.2,1.8s-0.8,1.7-0.8,2.7c0,1.5,0.6,2.8,1.7,3.8
		s2.8,1.5,5,1.5s4.1-0.5,5.8-1.4s2.9-2.2,3.7-3.9c0.6-1.3,0.9-3.1,0.9-5.6V377.9z"/>
	<path class="st29" d="M1789.4,394.5v-45.8h5.6v45.8H1789.4z"/>
</g>
<path class="st32" d="M942.7,522.2l346.2-104.9l-6.6-21.9L936,500.3L942.7,522.2z M939.4,511.3l12-39.5l-55.8,52.8l75.8,13
	L939.4,511.3z M1285.5,406.3l-12,39.5l55.8-52.8l-75.8-13L1285.5,406.3z"/>
<path class="st32" d="M584.4,366.5l247.3,135.6l-5.5,10.1L578.9,376.6L584.4,366.5z M581.6,371.6l6.3,36.1L551.4,355l64,2.4
	L581.6,371.6z M829,507.2l-6.3-36.1l36.5,52.7l-64-2.4L829,507.2z"/>
<path class="st51" d="M901.5,866c113.8-0.9,233.9-16.4,351.3-49c117.4-32.6,273-99.2,353-146.5s102.9-104.9,122.6-143.6"/>
<path class="st32" d="M946.5,560.7l1188-21.4l-0.4-22.9l-1188,21.4L946.5,560.7z M946.3,549.2l22.3-34.8L900.5,550l69.4,33.1
	L946.3,549.2z M2134.3,527.9l-22.3,34.8l68.1-35.6l-69.3-33.1L2134.3,527.9z"/>
<path class="st52" d="M872.9,590c-2.1,0.6-6.4,1.9-7.6,2.4c-8.6,3-10.7,16.7-4.5,29.4c2.2,4.5,1.8,5.5-2.9,8.3
	c-13.9,8.2-15.7,10.1-20.1,20.7c-0.6,1.5-1.4,2.8-2.4,4c-1.7,1.9-2.2,3.2-2.1,6c0.1,2.3-0.2,2.6-7.1,9.5c-3.4,3.4-6.4,6.6-6.7,7.1
	c-0.3,0.5-1.2,1.7-2,2.8c-2.9,4-4.1,8.2-5.9,20.5c-0.5,3.3-1.2,4.3-4.1,6.2c-3.8,2.5-3.9,2.9-3.1,11.1c0.2,1.7,0.4,5.4,0.6,8.4
	c0.6,11.1,2,13.8,8.6,16c0.8,0.3,2.5,1.2,3.7,2.2c4.4,3.3,7.3,3.9,11.6,2.3c4.2-1.5,5.8,2.1,5,11.6c-0.4,5.1-0.8,7.1-2.2,13.7
	c-0.3,1.4-0.6,2.9-0.6,3.5c0,0.5-0.2,1.8-0.4,2.8c-0.2,1-0.6,3.6-0.7,5.6c-0.4,4.7-0.5,5-4.5,9.5c-1.7,1.9-3.6,4.4-4.2,5.5l-1.2,2
	l-3.8,1.9c-6.3,3.2-8,4.8-22.3,20.4c-7.2,7.8-10.9,10.6-14.9,11.4c-1.2,0.2-3,0.7-3.9,1s-1.8,0.6-2.1,0.6c-1,0-4.9,1.9-5.9,2.9
	c-1.3,1.2-1.4,2.1-0.7,5.9c0.5,2.5,0.6,2.8,2.4,7c0.7,1.6,2.2,5.6,3.4,8.8c4.2,11.5,7.8,14.8,16.9,15.4c8.9,0.6,10.5-3.3,2.8-7.1
	c-4.7-2.3-5.3-4.8-3-12c0.5-1.4,1-3.4,1.2-4.3c1.2-6.7,8.1-13.4,23.2-22.6c2.1-1.3,6.2-3.9,9-5.9c2.8-1.9,6.4-4.4,8.1-5.6
	s4.6-2.9,6.6-3.8l3.6-1.8l2.9,0.2c4,0.2,4,0.3,9.2-7.1c3.8-5.4,3.8-5.4,6.6,1.6c2.1,5.2,1.9,5.2,9.4,2.8c7.7-2.4,7.8-2.3,7.9,3.9
	c0.1,7.7,0.5,9.6,4.1,20.2c6.4,18.8,7.1,21.9,5.3,25.8c-1.2,2.6-2.5,9-2.5,11.8c0,1.9,0.5,2.8,1.9,3.2c1.2,0.3,23.4,0.2,28.8-0.2
	c2.6-0.2,6.7-0.4,9.1-0.6c4.8-0.3,5.8-0.6,6.4-2c1.2-3-2.2-5.3-10.4-7.1c-3.7-0.8-11.6-5.6-15.2-9.2c-3.4-3.4-5.4-11.3-5.8-23.2
	c-0.1-2.8-0.3-6.2-0.4-7.5c-0.2-1.3-0.4-4.3-0.6-6.5s-0.5-4.9-0.7-5.9c-0.8-3.9-0.9-6.7-0.1-8.1c0.9-1.8,1-4.1,0.3-11.8
	c-0.3-3.7-0.7-7.7-0.8-8.8c-0.1-1.1-0.3-2.5-0.4-3c-0.2-0.6-0.4-2.1-0.6-3.3c-0.3-2.4-0.7-4.2-1.9-9.9c-1.2-5.8-4.6-13.5-8.7-20
	c-1-1.5-1.8-2.9-1.8-3s-1-2.3-2.2-4.9s-2.3-5.5-2.4-6.4c-0.2-0.9-0.5-2.3-0.7-3.1c-0.8-2.5-0.4-7.9,0.6-9.5c0.9-1.5,2.1-0.8,7.6,4.3
	c5.3,4.9,6.3,6.1,8,9.3c1.2,2.3,2,3.5,4.5,6.1c1.9,2.1,3.7,4.3,4.9,6.4c2.2,3.5,2.6,3.9,5.1,4.8c3.1,1.1,4,0.7,5.2-2.3
	c2-5,0.3-12.6-4-17.9c-1.9-2.4-2.5-2.8-5.8-4.5c-2.4-1.3-3-1.7-4.2-3.2c-0.7-1-2.4-2.9-3.6-4.2c-8.2-8.7-16.1-19.1-17.1-22.4
	c-0.6-2.1-0.7-7.5-0.2-11.9c0.2-2.3,0.5-5,0.6-5.9s0.4-3,0.6-4.5c0.9-6,0.2-13.7-1.8-21c-2.9-10.5-2.8-11.7,0.4-15.4
	c0.9-1,2.2-2.8,2.8-3.8c1.3-2.3,2.1-2.8,5.1-3.4c3.5-0.7,3.8-0.9,4.6-4.5c0.7-3.1,2.4-6.8,3.5-7.5c1.9-1.3,2-2,0.7-4.6
	c-1-2.1-1.4-8.9-0.7-12.7c0.6-3.3-0.5-7.2-2.6-9.1C887.8,590.6,878.1,588.5,872.9,590"/>
</svg>
